M48
; DRILL file {KiCad (5.1.4)-1} date 10/25/2019 2:46:25 PM
; FORMAT={-:-/ absolute / inch / decimal}
; #@! TF.CreationDate,2019-10-25T14:46:25-05:00
; #@! TF.GenerationSoftware,Kicad,Pcbnew,(5.1.4)-1
; #@! TF.FileFunction,Plated,1,2,PTH
FMAT,2
INCH
T1C0.0157
T2C0.0197
T3C0.0276
T4C0.0315
T5C0.0394
T6C0.0400
T7C0.0504
T8C0.0866
T9C0.1200
%
G90
G05
T1
X5.0Y-3.2
X5.3Y-3.1
X6.6Y-4.7
X6.7Y-4.7
T2
X6.4531Y-3.275
X6.4925Y-3.275
X6.5319Y-3.275
X6.5713Y-3.275
X6.6106Y-3.275
X6.65Y-3.275
T3
X5.47Y-4.625
X5.67Y-4.625
T4
X6.12Y-3.525
X6.42Y-3.525
X5.95Y-4.65
X6.25Y-4.65
X5.37Y-3.275
X5.37Y-3.375
X5.37Y-3.475
X5.37Y-3.575
X5.37Y-3.675
X5.37Y-3.775
X5.37Y-3.875
X5.37Y-3.975
X5.87Y-3.275
X5.87Y-3.375
X5.87Y-3.475
X5.87Y-3.575
X5.87Y-3.675
X5.87Y-3.775
X5.87Y-3.875
X5.87Y-3.975
X6.17Y-3.825
X6.47Y-3.825
T5
X6.62Y-4.225
X6.62Y-4.4219
T6
X6.37Y-4.875
X6.47Y-4.875
X6.57Y-4.875
X6.67Y-4.875
X6.77Y-4.875
X6.87Y-4.875
X6.17Y-2.975
X6.27Y-2.975
X6.37Y-2.975
X6.47Y-2.975
X6.57Y-2.975
X6.67Y-2.975
X6.77Y-2.975
X6.87Y-2.975
X5.47Y-4.875
X5.57Y-4.875
X5.67Y-4.875
X5.77Y-4.875
X5.87Y-4.875
X5.97Y-4.875
X6.07Y-4.875
X6.17Y-4.875
X5.11Y-2.975
X5.21Y-2.975
X5.31Y-2.975
X5.41Y-2.975
X5.51Y-2.975
X5.61Y-2.975
X5.71Y-2.975
X5.81Y-2.975
X5.91Y-2.975
X6.01Y-2.975
T7
X5.97Y-4.475
X6.07Y-4.475
X6.17Y-4.475
T8
X6.62Y-3.925
X5.17Y-3.225
X5.17Y-3.675
X6.62Y-3.575
X5.7Y-4.4
X5.02Y-3.475
X6.42Y-4.625
X5.02Y-3.925
T9
X4.92Y-4.875
X6.97Y-3.575
X6.97Y-4.675
X4.97Y-2.975
T0
M30
