G04 #@! TF.GenerationSoftware,KiCad,Pcbnew,(5.1.4)-1*
G04 #@! TF.CreationDate,2019-10-25T14:46:27-05:00*
G04 #@! TF.ProjectId,Autonomous_PCB,4175746f-6e6f-46d6-9f75-735f5043422e,rev?*
G04 #@! TF.SameCoordinates,Original*
G04 #@! TF.FileFunction,Soldermask,Bot*
G04 #@! TF.FilePolarity,Negative*
%FSLAX46Y46*%
G04 Gerber Fmt 4.6, Leading zero omitted, Abs format (unit mm)*
G04 Created by KiCad (PCBNEW (5.1.4)-1) date 2019-10-25 14:46:27*
%MOMM*%
%LPD*%
G04 APERTURE LIST*
%ADD10O,0.850000X0.850000*%
%ADD11R,0.850000X0.850000*%
%ADD12C,1.600000*%
%ADD13O,1.600000X1.600000*%
%ADD14O,1.727200X2.032000*%
%ADD15C,4.064000*%
%ADD16R,1.600000X1.600000*%
%ADD17R,2.000000X2.000000*%
%ADD18C,2.000000*%
%ADD19C,3.800000*%
%ADD20R,1.920000X1.920000*%
%ADD21C,1.920000*%
%ADD22C,1.400000*%
%ADD23O,1.400000X1.400000*%
G04 APERTURE END LIST*
D10*
X163910000Y-83185000D03*
X164910000Y-83185000D03*
X165910000Y-83185000D03*
X166910000Y-83185000D03*
X167910000Y-83185000D03*
D11*
X168910000Y-83185000D03*
D12*
X155448000Y-89535000D03*
D13*
X163068000Y-89535000D03*
D14*
X138938000Y-123825000D03*
X141478000Y-123825000D03*
X144018000Y-123825000D03*
X146558000Y-123825000D03*
X149098000Y-123825000D03*
X151638000Y-123825000D03*
X154178000Y-123825000D03*
X156718000Y-123825000D03*
X161798000Y-123825000D03*
X164338000Y-123825000D03*
X166878000Y-123825000D03*
X169418000Y-123825000D03*
X171958000Y-123825000D03*
X174498000Y-123825000D03*
X129794000Y-75565000D03*
X132334000Y-75565000D03*
X134874000Y-75565000D03*
X137414000Y-75565000D03*
X139954000Y-75565000D03*
X142494000Y-75565000D03*
X145034000Y-75565000D03*
X147574000Y-75565000D03*
X150114000Y-75565000D03*
X152654000Y-75565000D03*
X156718000Y-75565000D03*
X159258000Y-75565000D03*
X161798000Y-75565000D03*
X164338000Y-75565000D03*
X166878000Y-75565000D03*
X169418000Y-75565000D03*
X171958000Y-75565000D03*
X174498000Y-75565000D03*
D15*
X124968000Y-123825000D03*
X177038000Y-118745000D03*
X126238000Y-75565000D03*
X177038000Y-90805000D03*
D16*
X136398000Y-83185000D03*
D13*
X149098000Y-100965000D03*
X136398000Y-85725000D03*
X149098000Y-98425000D03*
X136398000Y-88265000D03*
X149098000Y-95885000D03*
X136398000Y-90805000D03*
X149098000Y-93345000D03*
X136398000Y-93345000D03*
X149098000Y-90805000D03*
X136398000Y-95885000D03*
X149098000Y-88265000D03*
X136398000Y-98425000D03*
X149098000Y-85725000D03*
X136398000Y-100965000D03*
X149098000Y-83185000D03*
D17*
X168148000Y-107315000D03*
D18*
X168148000Y-112315000D03*
D19*
X144780000Y-111760000D03*
X168148000Y-90805000D03*
X131318000Y-81915000D03*
X127508000Y-88265000D03*
X131318000Y-93345000D03*
X127508000Y-99695000D03*
X168148000Y-99695000D03*
X163068000Y-117475000D03*
D20*
X151638000Y-113665000D03*
D21*
X154178000Y-113665000D03*
X156718000Y-113665000D03*
D12*
X156718000Y-97155000D03*
D13*
X164338000Y-97155000D03*
X151130000Y-118110000D03*
D12*
X158750000Y-118110000D03*
D22*
X138938000Y-117475000D03*
D23*
X144018000Y-117475000D03*
M02*
