G04 #@! TF.GenerationSoftware,KiCad,Pcbnew,(5.1.4)-1*
G04 #@! TF.CreationDate,2019-11-15T15:22:52-06:00*
G04 #@! TF.ProjectId,Autonomous_PCB,4175746f-6e6f-46d6-9f75-735f5043422e,rev?*
G04 #@! TF.SameCoordinates,Original*
G04 #@! TF.FileFunction,Copper,L1,Top*
G04 #@! TF.FilePolarity,Positive*
%FSLAX46Y46*%
G04 Gerber Fmt 4.6, Leading zero omitted, Abs format (unit mm)*
G04 Created by KiCad (PCBNEW (5.1.4)-1) date 2019-11-15 15:22:52*
%MOMM*%
%LPD*%
G04 APERTURE LIST*
%ADD10O,0.850000X0.850000*%
%ADD11R,0.850000X0.850000*%
%ADD12C,1.600000*%
%ADD13O,1.600000X1.600000*%
%ADD14O,1.727200X2.032000*%
%ADD15C,4.064000*%
%ADD16R,1.600000X1.600000*%
%ADD17R,2.000000X2.000000*%
%ADD18C,2.000000*%
%ADD19C,3.800000*%
%ADD20R,1.920000X1.920000*%
%ADD21C,1.920000*%
%ADD22C,1.400000*%
%ADD23O,1.400000X1.400000*%
%ADD24C,0.600000*%
%ADD25C,0.250000*%
%ADD26C,0.254000*%
G04 APERTURE END LIST*
D10*
X163910000Y-83185000D03*
X164910000Y-83185000D03*
X165910000Y-83185000D03*
X166910000Y-83185000D03*
X167910000Y-83185000D03*
D11*
X168910000Y-83185000D03*
D12*
X155448000Y-89535000D03*
D13*
X163068000Y-89535000D03*
D14*
X138938000Y-123825000D03*
X141478000Y-123825000D03*
X144018000Y-123825000D03*
X146558000Y-123825000D03*
X149098000Y-123825000D03*
X151638000Y-123825000D03*
X154178000Y-123825000D03*
X156718000Y-123825000D03*
X161798000Y-123825000D03*
X164338000Y-123825000D03*
X166878000Y-123825000D03*
X169418000Y-123825000D03*
X171958000Y-123825000D03*
X174498000Y-123825000D03*
X129794000Y-75565000D03*
X132334000Y-75565000D03*
X134874000Y-75565000D03*
X137414000Y-75565000D03*
X139954000Y-75565000D03*
X142494000Y-75565000D03*
X145034000Y-75565000D03*
X147574000Y-75565000D03*
X150114000Y-75565000D03*
X152654000Y-75565000D03*
X156718000Y-75565000D03*
X159258000Y-75565000D03*
X161798000Y-75565000D03*
X164338000Y-75565000D03*
X166878000Y-75565000D03*
X169418000Y-75565000D03*
X171958000Y-75565000D03*
X174498000Y-75565000D03*
D15*
X124968000Y-123825000D03*
X177038000Y-118745000D03*
X126238000Y-75565000D03*
X177038000Y-90805000D03*
D16*
X136398000Y-83185000D03*
D13*
X149098000Y-100965000D03*
X136398000Y-85725000D03*
X149098000Y-98425000D03*
X136398000Y-88265000D03*
X149098000Y-95885000D03*
X136398000Y-90805000D03*
X149098000Y-93345000D03*
X136398000Y-93345000D03*
X149098000Y-90805000D03*
X136398000Y-95885000D03*
X149098000Y-88265000D03*
X136398000Y-98425000D03*
X149098000Y-85725000D03*
X136398000Y-100965000D03*
X149098000Y-83185000D03*
D17*
X168148000Y-107315000D03*
D18*
X168148000Y-112315000D03*
D19*
X144780000Y-111760000D03*
X168148000Y-90805000D03*
X131318000Y-81915000D03*
X127508000Y-88265000D03*
X131318000Y-93345000D03*
X127508000Y-99695000D03*
X168148000Y-99695000D03*
X163068000Y-117475000D03*
D20*
X151638000Y-113665000D03*
D21*
X154178000Y-113665000D03*
X156718000Y-113665000D03*
D12*
X156718000Y-97155000D03*
D13*
X164338000Y-97155000D03*
X151130000Y-118110000D03*
D12*
X158750000Y-118110000D03*
D22*
X138938000Y-117475000D03*
D23*
X144018000Y-117475000D03*
D24*
X167640000Y-119380000D03*
X134620000Y-78740000D03*
X170180000Y-119380000D03*
X127000000Y-81280000D03*
D25*
X149098000Y-123672600D02*
X149098000Y-123825000D01*
X147984400Y-122559000D02*
X149098000Y-123672600D01*
X147832000Y-122559000D02*
X147984400Y-122559000D01*
X144018000Y-117475000D02*
X144018000Y-118745000D01*
X144018000Y-118745000D02*
X147832000Y-122559000D01*
X143318001Y-116775001D02*
X144018000Y-117475000D01*
X137912999Y-116982999D02*
X138445999Y-116449999D01*
X137912999Y-115333999D02*
X137912999Y-116982999D01*
X144526987Y-108720011D02*
X137912999Y-115333999D01*
X169327991Y-108720011D02*
X144526987Y-108720011D01*
X170373001Y-107675001D02*
X169327991Y-108720011D01*
X138445999Y-116449999D02*
X142992999Y-116449999D01*
X170373001Y-86249041D02*
X170373001Y-107675001D01*
X167910000Y-83786040D02*
X170373001Y-86249041D01*
X142992999Y-116449999D02*
X143318001Y-116775001D01*
X167910000Y-83185000D02*
X167910000Y-83786040D01*
X163068000Y-117395000D02*
X163068000Y-117475000D01*
X168148000Y-112315000D02*
X163068000Y-117395000D01*
X164338000Y-96023630D02*
X164338000Y-97155000D01*
X164338000Y-91321998D02*
X164338000Y-96023630D01*
X166910000Y-88749998D02*
X164338000Y-91321998D01*
X159258000Y-113665000D02*
X163068000Y-117475000D01*
X156718000Y-113665000D02*
X159258000Y-113665000D01*
X161305662Y-125166010D02*
X157480000Y-121340348D01*
X162290338Y-125166010D02*
X161305662Y-125166010D01*
X162986610Y-124469738D02*
X162290338Y-125166010D01*
X156718000Y-113665000D02*
X162986610Y-119933610D01*
X162986610Y-119933610D02*
X162986610Y-124469738D01*
X137414000Y-76831000D02*
X137414000Y-75565000D01*
X137414000Y-76871002D02*
X137414000Y-76831000D01*
X134595003Y-79689999D02*
X137414000Y-76871002D01*
X130249999Y-79689999D02*
X134595003Y-79689999D01*
X128034997Y-81905001D02*
X130249999Y-79689999D01*
X126699999Y-81905001D02*
X128034997Y-81905001D01*
X128595001Y-74433639D02*
X128595001Y-78759997D01*
X170606610Y-74920262D02*
X169346348Y-73660000D01*
X170606610Y-76209738D02*
X170606610Y-74920262D01*
X171273020Y-108047802D02*
X171273020Y-76876148D01*
X126374999Y-80979999D02*
X126374999Y-81580001D01*
X162986610Y-124469738D02*
X162986610Y-116334212D01*
X161840328Y-125616020D02*
X162986610Y-124469738D01*
X146515672Y-125616020D02*
X161840328Y-125616020D01*
X128595001Y-78759997D02*
X126374999Y-80979999D01*
X145369390Y-124469738D02*
X146515672Y-125616020D01*
X129368640Y-73660000D02*
X128595001Y-74433639D01*
X145369390Y-123180262D02*
X145369390Y-124469738D01*
X144673118Y-122483990D02*
X145369390Y-123180262D01*
X142429988Y-122483990D02*
X144673118Y-122483990D01*
X162986610Y-116334212D02*
X171273020Y-108047802D01*
X135272999Y-115327001D02*
X142429988Y-122483990D01*
X135272999Y-100424999D02*
X135272999Y-115327001D01*
X169346348Y-73660000D02*
X129368640Y-73660000D01*
X135857999Y-99839999D02*
X135272999Y-100424999D01*
X126374999Y-81580001D02*
X126699999Y-81905001D01*
X155819999Y-99839999D02*
X135857999Y-99839999D01*
X171273020Y-76876148D02*
X170606610Y-76209738D01*
X166910000Y-88749998D02*
X155819999Y-99839999D01*
X166910000Y-83185000D02*
X166910000Y-88749998D01*
X160684400Y-123825000D02*
X161798000Y-123825000D01*
X158750000Y-121890600D02*
X160684400Y-123825000D01*
X158750000Y-118110000D02*
X158750000Y-121890600D01*
X139927949Y-117475000D02*
X138938000Y-117475000D01*
X142111590Y-117475000D02*
X139927949Y-117475000D01*
X147909390Y-123272800D02*
X142111590Y-117475000D01*
X148605662Y-125166010D02*
X147909390Y-124469738D01*
X149590338Y-125166010D02*
X148605662Y-125166010D01*
X150286610Y-124469738D02*
X149590338Y-125166010D01*
X150286610Y-123180262D02*
X150286610Y-124469738D01*
X149590338Y-122483990D02*
X150286610Y-123180262D01*
X147909390Y-124469738D02*
X147909390Y-123272800D01*
X149590338Y-117984660D02*
X149590338Y-122483990D01*
X150589999Y-116984999D02*
X149590338Y-117984660D01*
X157624999Y-116984999D02*
X150589999Y-116984999D01*
X158750000Y-118110000D02*
X157624999Y-116984999D01*
X167665400Y-119380000D02*
X167640000Y-119380000D01*
X171958000Y-123825000D02*
X171958000Y-123672600D01*
X171958000Y-123672600D02*
X167665400Y-119380000D01*
X132334000Y-76454000D02*
X132334000Y-75565000D01*
X134620000Y-78740000D02*
X132334000Y-76454000D01*
X170205400Y-119380000D02*
X170180000Y-119380000D01*
X174498000Y-123825000D02*
X174498000Y-123672600D01*
X174498000Y-123672600D02*
X170205400Y-119380000D01*
X129794000Y-78486000D02*
X129794000Y-75565000D01*
X127000000Y-81280000D02*
X129794000Y-78486000D01*
X151638000Y-112455000D02*
X151638000Y-113665000D01*
X154922979Y-109170021D02*
X151638000Y-112455000D01*
X169514391Y-109170021D02*
X154922979Y-109170021D01*
X170823010Y-107861402D02*
X169514391Y-109170021D01*
X170823010Y-78966138D02*
X170823010Y-107861402D01*
X168066610Y-76209738D02*
X170823010Y-78966138D01*
X168066610Y-74920262D02*
X168066610Y-76209738D01*
X167370338Y-74223990D02*
X168066610Y-74920262D01*
X160446610Y-75083042D02*
X161305662Y-74223990D01*
X160446610Y-74920262D02*
X160446610Y-75083042D01*
X159750338Y-74223990D02*
X160446610Y-74920262D01*
X155108610Y-74223990D02*
X159750338Y-74223990D01*
X161305662Y-74223990D02*
X167370338Y-74223990D01*
X153767600Y-75565000D02*
X155108610Y-74223990D01*
X152654000Y-75565000D02*
X153767600Y-75565000D01*
X159258000Y-75717400D02*
X159258000Y-75565000D01*
X158069390Y-76906010D02*
X159258000Y-75717400D01*
X153711988Y-76906010D02*
X158069390Y-76906010D01*
X147972999Y-82644999D02*
X153711988Y-76906010D01*
X147972999Y-84599999D02*
X147972999Y-82644999D01*
X149098000Y-85725000D02*
X147972999Y-84599999D01*
X161798000Y-75717400D02*
X161798000Y-75565000D01*
X154330400Y-83185000D02*
X161798000Y-75717400D01*
X149098000Y-83185000D02*
X154330400Y-83185000D01*
X163068000Y-88403630D02*
X163068000Y-89535000D01*
X162337989Y-87673619D02*
X163068000Y-88403630D01*
X162337989Y-77717411D02*
X162337989Y-87673619D01*
X164338000Y-75717400D02*
X162337989Y-77717411D01*
X164338000Y-75565000D02*
X164338000Y-75717400D01*
X165910000Y-76533000D02*
X166878000Y-75565000D01*
X165910000Y-83185000D02*
X165910000Y-76533000D01*
X131318000Y-83185000D02*
X131318000Y-81915000D01*
X136398000Y-88265000D02*
X131318000Y-83185000D01*
X130048000Y-90805000D02*
X127508000Y-88265000D01*
X136398000Y-90805000D02*
X130048000Y-90805000D01*
X136398000Y-93345000D02*
X131318000Y-93345000D01*
X131318000Y-95885000D02*
X127508000Y-99695000D01*
X136398000Y-95885000D02*
X131318000Y-95885000D01*
X168148000Y-107315000D02*
X168148000Y-99695000D01*
X166898000Y-107315000D02*
X168148000Y-107315000D01*
X165942999Y-108270001D02*
X166898000Y-107315000D01*
X143703001Y-108270001D02*
X165942999Y-108270001D01*
X136398000Y-100965000D02*
X143703001Y-108270001D01*
X168148000Y-99695000D02*
X168148000Y-90805000D01*
X153218001Y-114624999D02*
X154178000Y-113665000D01*
X152892999Y-114950001D02*
X153218001Y-114624999D01*
X147970001Y-114950001D02*
X152892999Y-114950001D01*
X144780000Y-111760000D02*
X147970001Y-114950001D01*
X156718000Y-90805000D02*
X155448000Y-89535000D01*
X156718000Y-97155000D02*
X156718000Y-90805000D01*
X163463002Y-90805000D02*
X156718000Y-90805000D01*
X164910000Y-89358002D02*
X163463002Y-90805000D01*
X164910000Y-83185000D02*
X164910000Y-89358002D01*
D26*
G36*
X157351312Y-117786113D02*
G01*
X157315000Y-117968665D01*
X157315000Y-118251335D01*
X157370147Y-118528574D01*
X157478320Y-118789727D01*
X157635363Y-119024759D01*
X157835241Y-119224637D01*
X157990000Y-119328044D01*
X157990001Y-121853268D01*
X157986324Y-121890600D01*
X157990001Y-121927933D01*
X158000998Y-122039586D01*
X158007104Y-122059714D01*
X158044454Y-122182846D01*
X158115026Y-122314876D01*
X158186201Y-122401602D01*
X158210000Y-122430601D01*
X158238998Y-122454399D01*
X160120601Y-124336003D01*
X160144399Y-124365001D01*
X160260124Y-124459974D01*
X160392153Y-124530546D01*
X160400533Y-124533088D01*
X160406775Y-124553664D01*
X160545931Y-124814006D01*
X160672311Y-124968000D01*
X157843689Y-124968000D01*
X157970069Y-124814006D01*
X158109225Y-124553663D01*
X158194916Y-124271176D01*
X158216600Y-124051018D01*
X158216600Y-123598981D01*
X158194916Y-123378823D01*
X158109225Y-123096336D01*
X157970069Y-122835994D01*
X157782797Y-122607803D01*
X157554605Y-122420531D01*
X157294263Y-122281375D01*
X157011776Y-122195684D01*
X156718000Y-122166749D01*
X156424223Y-122195684D01*
X156141736Y-122281375D01*
X155881394Y-122420531D01*
X155653203Y-122607803D01*
X155465931Y-122835995D01*
X155444576Y-122875947D01*
X155296486Y-122673271D01*
X155080035Y-122474267D01*
X154828919Y-122321314D01*
X154552789Y-122220291D01*
X154537026Y-122217642D01*
X154305000Y-122338783D01*
X154305000Y-123698000D01*
X154325000Y-123698000D01*
X154325000Y-123952000D01*
X154305000Y-123952000D01*
X154305000Y-123972000D01*
X154051000Y-123972000D01*
X154051000Y-123952000D01*
X151765000Y-123952000D01*
X151765000Y-123972000D01*
X151511000Y-123972000D01*
X151511000Y-123952000D01*
X151491000Y-123952000D01*
X151491000Y-123698000D01*
X151511000Y-123698000D01*
X151511000Y-122338783D01*
X151765000Y-122338783D01*
X151765000Y-123698000D01*
X154051000Y-123698000D01*
X154051000Y-122338783D01*
X153818974Y-122217642D01*
X153803211Y-122220291D01*
X153527081Y-122321314D01*
X153275965Y-122474267D01*
X153059514Y-122673271D01*
X152908000Y-122880633D01*
X152756486Y-122673271D01*
X152540035Y-122474267D01*
X152288919Y-122321314D01*
X152012789Y-122220291D01*
X151997026Y-122217642D01*
X151765000Y-122338783D01*
X151511000Y-122338783D01*
X151278974Y-122217642D01*
X151263211Y-122220291D01*
X150987081Y-122321314D01*
X150735965Y-122474267D01*
X150694000Y-122512850D01*
X150350338Y-122169189D01*
X150350338Y-119307646D01*
X150516119Y-119407070D01*
X150780960Y-119501909D01*
X151003000Y-119380624D01*
X151003000Y-118237000D01*
X151257000Y-118237000D01*
X151257000Y-119380624D01*
X151479040Y-119501909D01*
X151743881Y-119407070D01*
X151985131Y-119262385D01*
X152193519Y-119073414D01*
X152361037Y-118847420D01*
X152481246Y-118593087D01*
X152521904Y-118459039D01*
X152399915Y-118237000D01*
X151257000Y-118237000D01*
X151003000Y-118237000D01*
X150983000Y-118237000D01*
X150983000Y-117983000D01*
X151003000Y-117983000D01*
X151003000Y-117963000D01*
X151257000Y-117963000D01*
X151257000Y-117983000D01*
X152399915Y-117983000D01*
X152521904Y-117760961D01*
X152517063Y-117744999D01*
X157310198Y-117744999D01*
X157351312Y-117786113D01*
X157351312Y-117786113D01*
G37*
X157351312Y-117786113D02*
X157315000Y-117968665D01*
X157315000Y-118251335D01*
X157370147Y-118528574D01*
X157478320Y-118789727D01*
X157635363Y-119024759D01*
X157835241Y-119224637D01*
X157990000Y-119328044D01*
X157990001Y-121853268D01*
X157986324Y-121890600D01*
X157990001Y-121927933D01*
X158000998Y-122039586D01*
X158007104Y-122059714D01*
X158044454Y-122182846D01*
X158115026Y-122314876D01*
X158186201Y-122401602D01*
X158210000Y-122430601D01*
X158238998Y-122454399D01*
X160120601Y-124336003D01*
X160144399Y-124365001D01*
X160260124Y-124459974D01*
X160392153Y-124530546D01*
X160400533Y-124533088D01*
X160406775Y-124553664D01*
X160545931Y-124814006D01*
X160672311Y-124968000D01*
X157843689Y-124968000D01*
X157970069Y-124814006D01*
X158109225Y-124553663D01*
X158194916Y-124271176D01*
X158216600Y-124051018D01*
X158216600Y-123598981D01*
X158194916Y-123378823D01*
X158109225Y-123096336D01*
X157970069Y-122835994D01*
X157782797Y-122607803D01*
X157554605Y-122420531D01*
X157294263Y-122281375D01*
X157011776Y-122195684D01*
X156718000Y-122166749D01*
X156424223Y-122195684D01*
X156141736Y-122281375D01*
X155881394Y-122420531D01*
X155653203Y-122607803D01*
X155465931Y-122835995D01*
X155444576Y-122875947D01*
X155296486Y-122673271D01*
X155080035Y-122474267D01*
X154828919Y-122321314D01*
X154552789Y-122220291D01*
X154537026Y-122217642D01*
X154305000Y-122338783D01*
X154305000Y-123698000D01*
X154325000Y-123698000D01*
X154325000Y-123952000D01*
X154305000Y-123952000D01*
X154305000Y-123972000D01*
X154051000Y-123972000D01*
X154051000Y-123952000D01*
X151765000Y-123952000D01*
X151765000Y-123972000D01*
X151511000Y-123972000D01*
X151511000Y-123952000D01*
X151491000Y-123952000D01*
X151491000Y-123698000D01*
X151511000Y-123698000D01*
X151511000Y-122338783D01*
X151765000Y-122338783D01*
X151765000Y-123698000D01*
X154051000Y-123698000D01*
X154051000Y-122338783D01*
X153818974Y-122217642D01*
X153803211Y-122220291D01*
X153527081Y-122321314D01*
X153275965Y-122474267D01*
X153059514Y-122673271D01*
X152908000Y-122880633D01*
X152756486Y-122673271D01*
X152540035Y-122474267D01*
X152288919Y-122321314D01*
X152012789Y-122220291D01*
X151997026Y-122217642D01*
X151765000Y-122338783D01*
X151511000Y-122338783D01*
X151278974Y-122217642D01*
X151263211Y-122220291D01*
X150987081Y-122321314D01*
X150735965Y-122474267D01*
X150694000Y-122512850D01*
X150350338Y-122169189D01*
X150350338Y-119307646D01*
X150516119Y-119407070D01*
X150780960Y-119501909D01*
X151003000Y-119380624D01*
X151003000Y-118237000D01*
X151257000Y-118237000D01*
X151257000Y-119380624D01*
X151479040Y-119501909D01*
X151743881Y-119407070D01*
X151985131Y-119262385D01*
X152193519Y-119073414D01*
X152361037Y-118847420D01*
X152481246Y-118593087D01*
X152521904Y-118459039D01*
X152399915Y-118237000D01*
X151257000Y-118237000D01*
X151003000Y-118237000D01*
X150983000Y-118237000D01*
X150983000Y-117983000D01*
X151003000Y-117983000D01*
X151003000Y-117963000D01*
X151257000Y-117963000D01*
X151257000Y-117983000D01*
X152399915Y-117983000D01*
X152521904Y-117760961D01*
X152517063Y-117744999D01*
X157310198Y-117744999D01*
X157351312Y-117786113D01*
G36*
X123673492Y-74787065D02*
G01*
X123571000Y-75302323D01*
X123571000Y-75827677D01*
X123673492Y-76342935D01*
X123874536Y-76828298D01*
X124166406Y-77265113D01*
X124537887Y-77636594D01*
X124974702Y-77928464D01*
X125460065Y-78129508D01*
X125975323Y-78232000D01*
X126500677Y-78232000D01*
X127015935Y-78129508D01*
X127501298Y-77928464D01*
X127938113Y-77636594D01*
X128309594Y-77265113D01*
X128601464Y-76828298D01*
X128657001Y-76694219D01*
X128729203Y-76782197D01*
X128957395Y-76969469D01*
X129034001Y-77010416D01*
X129034000Y-78171198D01*
X126848352Y-80356847D01*
X126727271Y-80380932D01*
X126557111Y-80451414D01*
X126403972Y-80553738D01*
X126273738Y-80683972D01*
X126171414Y-80837111D01*
X126100932Y-81007271D01*
X126065000Y-81187911D01*
X126065000Y-81372089D01*
X126100932Y-81552729D01*
X126171414Y-81722889D01*
X126273738Y-81876028D01*
X126403972Y-82006262D01*
X126557111Y-82108586D01*
X126727271Y-82179068D01*
X126907911Y-82215000D01*
X127092089Y-82215000D01*
X127272729Y-82179068D01*
X127442889Y-82108586D01*
X127596028Y-82006262D01*
X127726262Y-81876028D01*
X127828586Y-81722889D01*
X127899068Y-81552729D01*
X127923153Y-81431648D01*
X130305004Y-79049798D01*
X130334001Y-79026001D01*
X130428974Y-78910276D01*
X130499546Y-78778247D01*
X130543003Y-78634986D01*
X130554000Y-78523333D01*
X130554000Y-78523325D01*
X130557676Y-78486000D01*
X130554000Y-78448675D01*
X130554000Y-77010416D01*
X130630606Y-76969469D01*
X130858797Y-76782197D01*
X131046069Y-76554006D01*
X131064000Y-76520459D01*
X131081931Y-76554006D01*
X131269203Y-76782197D01*
X131497395Y-76969469D01*
X131757737Y-77108625D01*
X131981789Y-77176590D01*
X133696847Y-78891649D01*
X133720932Y-79012729D01*
X133791414Y-79182889D01*
X133893738Y-79336028D01*
X134023972Y-79466262D01*
X134177111Y-79568586D01*
X134347271Y-79639068D01*
X134527911Y-79675000D01*
X134712089Y-79675000D01*
X134892729Y-79639068D01*
X135062889Y-79568586D01*
X135216028Y-79466262D01*
X135346262Y-79336028D01*
X135448586Y-79182889D01*
X135519068Y-79012729D01*
X135555000Y-78832089D01*
X135555000Y-78647911D01*
X135519068Y-78467271D01*
X135448586Y-78297111D01*
X135346262Y-78143972D01*
X135216028Y-78013738D01*
X135062889Y-77911414D01*
X134892729Y-77840932D01*
X134771649Y-77816847D01*
X133551243Y-76596442D01*
X133586069Y-76554006D01*
X133604000Y-76520459D01*
X133621931Y-76554006D01*
X133809203Y-76782197D01*
X134037395Y-76969469D01*
X134297737Y-77108625D01*
X134580224Y-77194316D01*
X134874000Y-77223251D01*
X135167777Y-77194316D01*
X135450264Y-77108625D01*
X135710606Y-76969469D01*
X135938797Y-76782197D01*
X136126069Y-76554006D01*
X136147424Y-76514053D01*
X136295514Y-76716729D01*
X136511965Y-76915733D01*
X136763081Y-77068686D01*
X137039211Y-77169709D01*
X137054974Y-77172358D01*
X137287000Y-77051217D01*
X137287000Y-75692000D01*
X137267000Y-75692000D01*
X137267000Y-75438000D01*
X137287000Y-75438000D01*
X137287000Y-75418000D01*
X137541000Y-75418000D01*
X137541000Y-75438000D01*
X137561000Y-75438000D01*
X137561000Y-75692000D01*
X137541000Y-75692000D01*
X137541000Y-77051217D01*
X137773026Y-77172358D01*
X137788789Y-77169709D01*
X138064919Y-77068686D01*
X138316035Y-76915733D01*
X138532486Y-76716729D01*
X138680576Y-76514053D01*
X138701931Y-76554006D01*
X138889203Y-76782197D01*
X139117395Y-76969469D01*
X139377737Y-77108625D01*
X139660224Y-77194316D01*
X139954000Y-77223251D01*
X140247777Y-77194316D01*
X140530264Y-77108625D01*
X140790606Y-76969469D01*
X141018797Y-76782197D01*
X141206069Y-76554006D01*
X141224000Y-76520459D01*
X141241931Y-76554006D01*
X141429203Y-76782197D01*
X141657395Y-76969469D01*
X141917737Y-77108625D01*
X142200224Y-77194316D01*
X142494000Y-77223251D01*
X142787777Y-77194316D01*
X143070264Y-77108625D01*
X143330606Y-76969469D01*
X143558797Y-76782197D01*
X143746069Y-76554006D01*
X143764000Y-76520459D01*
X143781931Y-76554006D01*
X143969203Y-76782197D01*
X144197395Y-76969469D01*
X144457737Y-77108625D01*
X144740224Y-77194316D01*
X145034000Y-77223251D01*
X145327777Y-77194316D01*
X145610264Y-77108625D01*
X145870606Y-76969469D01*
X146098797Y-76782197D01*
X146286069Y-76554006D01*
X146304000Y-76520459D01*
X146321931Y-76554006D01*
X146509203Y-76782197D01*
X146737395Y-76969469D01*
X146997737Y-77108625D01*
X147280224Y-77194316D01*
X147574000Y-77223251D01*
X147867777Y-77194316D01*
X148150264Y-77108625D01*
X148410606Y-76969469D01*
X148638797Y-76782197D01*
X148826069Y-76554006D01*
X148844000Y-76520459D01*
X148861931Y-76554006D01*
X149049203Y-76782197D01*
X149277395Y-76969469D01*
X149537737Y-77108625D01*
X149820224Y-77194316D01*
X150114000Y-77223251D01*
X150407777Y-77194316D01*
X150690264Y-77108625D01*
X150950606Y-76969469D01*
X151178797Y-76782197D01*
X151366069Y-76554006D01*
X151384000Y-76520459D01*
X151401931Y-76554006D01*
X151589203Y-76782197D01*
X151817395Y-76969469D01*
X152077737Y-77108625D01*
X152351520Y-77191676D01*
X147461997Y-82081200D01*
X147432999Y-82104998D01*
X147409201Y-82133996D01*
X147409200Y-82133997D01*
X147338025Y-82220723D01*
X147267453Y-82352753D01*
X147223997Y-82496014D01*
X147209323Y-82644999D01*
X147213000Y-82682331D01*
X147212999Y-84562676D01*
X147209323Y-84599999D01*
X147212999Y-84637321D01*
X147212999Y-84637331D01*
X147223996Y-84748984D01*
X147267453Y-84892245D01*
X147338025Y-85024275D01*
X147377870Y-85072825D01*
X147432998Y-85140000D01*
X147462001Y-85163803D01*
X147697292Y-85399094D01*
X147683764Y-85443691D01*
X147656057Y-85725000D01*
X147683764Y-86006309D01*
X147765818Y-86276808D01*
X147899068Y-86526101D01*
X148078392Y-86744608D01*
X148296899Y-86923932D01*
X148429858Y-86995000D01*
X148296899Y-87066068D01*
X148078392Y-87245392D01*
X147899068Y-87463899D01*
X147765818Y-87713192D01*
X147683764Y-87983691D01*
X147656057Y-88265000D01*
X147683764Y-88546309D01*
X147765818Y-88816808D01*
X147899068Y-89066101D01*
X148078392Y-89284608D01*
X148296899Y-89463932D01*
X148429858Y-89535000D01*
X148296899Y-89606068D01*
X148078392Y-89785392D01*
X147899068Y-90003899D01*
X147765818Y-90253192D01*
X147683764Y-90523691D01*
X147656057Y-90805000D01*
X147683764Y-91086309D01*
X147765818Y-91356808D01*
X147899068Y-91606101D01*
X148078392Y-91824608D01*
X148296899Y-92003932D01*
X148429858Y-92075000D01*
X148296899Y-92146068D01*
X148078392Y-92325392D01*
X147899068Y-92543899D01*
X147765818Y-92793192D01*
X147683764Y-93063691D01*
X147656057Y-93345000D01*
X147683764Y-93626309D01*
X147765818Y-93896808D01*
X147899068Y-94146101D01*
X148078392Y-94364608D01*
X148296899Y-94543932D01*
X148429858Y-94615000D01*
X148296899Y-94686068D01*
X148078392Y-94865392D01*
X147899068Y-95083899D01*
X147765818Y-95333192D01*
X147683764Y-95603691D01*
X147656057Y-95885000D01*
X147683764Y-96166309D01*
X147765818Y-96436808D01*
X147899068Y-96686101D01*
X148078392Y-96904608D01*
X148296899Y-97083932D01*
X148429858Y-97155000D01*
X148296899Y-97226068D01*
X148078392Y-97405392D01*
X147899068Y-97623899D01*
X147765818Y-97873192D01*
X147683764Y-98143691D01*
X147656057Y-98425000D01*
X147683764Y-98706309D01*
X147765818Y-98976808D01*
X147899068Y-99226101D01*
X148078392Y-99444608D01*
X148296899Y-99623932D01*
X148429858Y-99695000D01*
X148296899Y-99766068D01*
X148078392Y-99945392D01*
X147899068Y-100163899D01*
X147765818Y-100413192D01*
X147683764Y-100683691D01*
X147656057Y-100965000D01*
X147683764Y-101246309D01*
X147765818Y-101516808D01*
X147899068Y-101766101D01*
X148078392Y-101984608D01*
X148296899Y-102163932D01*
X148546192Y-102297182D01*
X148816691Y-102379236D01*
X149027508Y-102400000D01*
X149168492Y-102400000D01*
X149379309Y-102379236D01*
X149649808Y-102297182D01*
X149899101Y-102163932D01*
X150117608Y-101984608D01*
X150296932Y-101766101D01*
X150430182Y-101516808D01*
X150512236Y-101246309D01*
X150539943Y-100965000D01*
X150512236Y-100683691D01*
X150430182Y-100413192D01*
X150296932Y-100163899D01*
X150117608Y-99945392D01*
X149899101Y-99766068D01*
X149766142Y-99695000D01*
X149899101Y-99623932D01*
X150117608Y-99444608D01*
X150296932Y-99226101D01*
X150430182Y-98976808D01*
X150512236Y-98706309D01*
X150539943Y-98425000D01*
X150512236Y-98143691D01*
X150430182Y-97873192D01*
X150296932Y-97623899D01*
X150117608Y-97405392D01*
X149899101Y-97226068D01*
X149766142Y-97155000D01*
X149899101Y-97083932D01*
X150117608Y-96904608D01*
X150296932Y-96686101D01*
X150430182Y-96436808D01*
X150512236Y-96166309D01*
X150539943Y-95885000D01*
X150512236Y-95603691D01*
X150430182Y-95333192D01*
X150296932Y-95083899D01*
X150117608Y-94865392D01*
X149899101Y-94686068D01*
X149766142Y-94615000D01*
X149899101Y-94543932D01*
X150117608Y-94364608D01*
X150296932Y-94146101D01*
X150430182Y-93896808D01*
X150512236Y-93626309D01*
X150539943Y-93345000D01*
X150512236Y-93063691D01*
X150430182Y-92793192D01*
X150296932Y-92543899D01*
X150117608Y-92325392D01*
X149899101Y-92146068D01*
X149766142Y-92075000D01*
X149899101Y-92003932D01*
X150117608Y-91824608D01*
X150296932Y-91606101D01*
X150430182Y-91356808D01*
X150512236Y-91086309D01*
X150539943Y-90805000D01*
X150512236Y-90523691D01*
X150430182Y-90253192D01*
X150296932Y-90003899D01*
X150117608Y-89785392D01*
X149899101Y-89606068D01*
X149766142Y-89535000D01*
X149899101Y-89463932D01*
X150117608Y-89284608D01*
X150296932Y-89066101D01*
X150430182Y-88816808D01*
X150512236Y-88546309D01*
X150539943Y-88265000D01*
X150512236Y-87983691D01*
X150430182Y-87713192D01*
X150296932Y-87463899D01*
X150117608Y-87245392D01*
X149899101Y-87066068D01*
X149766142Y-86995000D01*
X149899101Y-86923932D01*
X150117608Y-86744608D01*
X150296932Y-86526101D01*
X150430182Y-86276808D01*
X150512236Y-86006309D01*
X150539943Y-85725000D01*
X150512236Y-85443691D01*
X150430182Y-85173192D01*
X150296932Y-84923899D01*
X150117608Y-84705392D01*
X149899101Y-84526068D01*
X149766142Y-84455000D01*
X149899101Y-84383932D01*
X150117608Y-84204608D01*
X150296932Y-83986101D01*
X150318901Y-83945000D01*
X154293078Y-83945000D01*
X154330400Y-83948676D01*
X154367722Y-83945000D01*
X154367733Y-83945000D01*
X154479386Y-83934003D01*
X154622647Y-83890546D01*
X154754676Y-83819974D01*
X154870401Y-83725001D01*
X154894204Y-83695997D01*
X161421101Y-77169101D01*
X161504224Y-77194316D01*
X161763182Y-77219822D01*
X161742860Y-77244585D01*
X161703015Y-77293135D01*
X161683157Y-77330287D01*
X161632443Y-77425165D01*
X161588986Y-77568426D01*
X161577989Y-77680079D01*
X161577989Y-77680089D01*
X161574313Y-77717411D01*
X161577989Y-77754733D01*
X161577990Y-87636287D01*
X161574313Y-87673619D01*
X161588987Y-87822604D01*
X161632443Y-87965865D01*
X161703015Y-88097895D01*
X161735929Y-88138000D01*
X161797989Y-88213620D01*
X161826986Y-88237418D01*
X162079462Y-88489894D01*
X162048392Y-88515392D01*
X161869068Y-88733899D01*
X161735818Y-88983192D01*
X161653764Y-89253691D01*
X161626057Y-89535000D01*
X161653764Y-89816309D01*
X161723136Y-90045000D01*
X157032802Y-90045000D01*
X156846688Y-89858886D01*
X156883000Y-89676335D01*
X156883000Y-89393665D01*
X156827853Y-89116426D01*
X156719680Y-88855273D01*
X156562637Y-88620241D01*
X156362759Y-88420363D01*
X156127727Y-88263320D01*
X155866574Y-88155147D01*
X155589335Y-88100000D01*
X155306665Y-88100000D01*
X155029426Y-88155147D01*
X154768273Y-88263320D01*
X154533241Y-88420363D01*
X154333363Y-88620241D01*
X154176320Y-88855273D01*
X154068147Y-89116426D01*
X154013000Y-89393665D01*
X154013000Y-89676335D01*
X154068147Y-89953574D01*
X154176320Y-90214727D01*
X154333363Y-90449759D01*
X154533241Y-90649637D01*
X154768273Y-90806680D01*
X155029426Y-90914853D01*
X155306665Y-90970000D01*
X155589335Y-90970000D01*
X155771886Y-90933688D01*
X155958001Y-91119803D01*
X155958000Y-95936956D01*
X155803241Y-96040363D01*
X155603363Y-96240241D01*
X155446320Y-96475273D01*
X155338147Y-96736426D01*
X155283000Y-97013665D01*
X155283000Y-97296335D01*
X155338147Y-97573574D01*
X155446320Y-97834727D01*
X155603363Y-98069759D01*
X155803241Y-98269637D01*
X156038273Y-98426680D01*
X156299426Y-98534853D01*
X156576665Y-98590000D01*
X156859335Y-98590000D01*
X157136574Y-98534853D01*
X157397727Y-98426680D01*
X157632759Y-98269637D01*
X157832637Y-98069759D01*
X157989680Y-97834727D01*
X158097853Y-97573574D01*
X158111684Y-97504039D01*
X162946096Y-97504039D01*
X162986754Y-97638087D01*
X163106963Y-97892420D01*
X163274481Y-98118414D01*
X163482869Y-98307385D01*
X163724119Y-98452070D01*
X163988960Y-98546909D01*
X164211000Y-98425624D01*
X164211000Y-97282000D01*
X164465000Y-97282000D01*
X164465000Y-98425624D01*
X164687040Y-98546909D01*
X164951881Y-98452070D01*
X165193131Y-98307385D01*
X165401519Y-98118414D01*
X165569037Y-97892420D01*
X165689246Y-97638087D01*
X165729904Y-97504039D01*
X165607915Y-97282000D01*
X164465000Y-97282000D01*
X164211000Y-97282000D01*
X163068085Y-97282000D01*
X162946096Y-97504039D01*
X158111684Y-97504039D01*
X158153000Y-97296335D01*
X158153000Y-97013665D01*
X158111685Y-96805961D01*
X162946096Y-96805961D01*
X163068085Y-97028000D01*
X164211000Y-97028000D01*
X164211000Y-95884376D01*
X164465000Y-95884376D01*
X164465000Y-97028000D01*
X165607915Y-97028000D01*
X165729904Y-96805961D01*
X165689246Y-96671913D01*
X165569037Y-96417580D01*
X165401519Y-96191586D01*
X165193131Y-96002615D01*
X164951881Y-95857930D01*
X164687040Y-95763091D01*
X164465000Y-95884376D01*
X164211000Y-95884376D01*
X163988960Y-95763091D01*
X163724119Y-95857930D01*
X163482869Y-96002615D01*
X163274481Y-96191586D01*
X163106963Y-96417580D01*
X162986754Y-96671913D01*
X162946096Y-96805961D01*
X158111685Y-96805961D01*
X158097853Y-96736426D01*
X157989680Y-96475273D01*
X157832637Y-96240241D01*
X157632759Y-96040363D01*
X157478000Y-95936957D01*
X157478000Y-91565000D01*
X163425680Y-91565000D01*
X163463002Y-91568676D01*
X163500324Y-91565000D01*
X163500335Y-91565000D01*
X163611988Y-91554003D01*
X163755249Y-91510546D01*
X163887278Y-91439974D01*
X164003003Y-91345001D01*
X164026806Y-91315997D01*
X165421003Y-89921801D01*
X165450001Y-89898003D01*
X165544974Y-89782278D01*
X165615546Y-89650249D01*
X165659003Y-89506988D01*
X165670000Y-89395335D01*
X165670000Y-89395326D01*
X165673676Y-89358003D01*
X165670000Y-89320680D01*
X165670000Y-84219893D01*
X165702204Y-84229662D01*
X165857934Y-84245000D01*
X165962066Y-84245000D01*
X166117796Y-84229662D01*
X166317607Y-84169050D01*
X166411809Y-84118698D01*
X166584750Y-84193872D01*
X166619938Y-84204540D01*
X166783000Y-84077257D01*
X166783000Y-83792133D01*
X166795622Y-83776753D01*
X166894050Y-83592607D01*
X166910000Y-83540027D01*
X166925950Y-83592607D01*
X167024378Y-83776753D01*
X167037000Y-83792133D01*
X167037000Y-84077257D01*
X167200062Y-84204540D01*
X167235250Y-84193872D01*
X167260394Y-84182942D01*
X167275026Y-84210316D01*
X167340422Y-84290000D01*
X167370000Y-84326041D01*
X167398998Y-84349839D01*
X169613001Y-86563844D01*
X169613001Y-88735064D01*
X169348773Y-88558512D01*
X168887432Y-88367418D01*
X168397676Y-88270000D01*
X167898324Y-88270000D01*
X167408568Y-88367418D01*
X166947227Y-88558512D01*
X166532032Y-88835937D01*
X166178937Y-89189032D01*
X165901512Y-89604227D01*
X165710418Y-90065568D01*
X165613000Y-90555324D01*
X165613000Y-91054676D01*
X165710418Y-91544432D01*
X165901512Y-92005773D01*
X166178937Y-92420968D01*
X166532032Y-92774063D01*
X166947227Y-93051488D01*
X167388001Y-93234063D01*
X167388000Y-97265937D01*
X166947227Y-97448512D01*
X166532032Y-97725937D01*
X166178937Y-98079032D01*
X165901512Y-98494227D01*
X165710418Y-98955568D01*
X165613000Y-99445324D01*
X165613000Y-99944676D01*
X165710418Y-100434432D01*
X165901512Y-100895773D01*
X166178937Y-101310968D01*
X166532032Y-101664063D01*
X166947227Y-101941488D01*
X167388001Y-102124063D01*
X167388000Y-105676928D01*
X167148000Y-105676928D01*
X167023518Y-105689188D01*
X166903820Y-105725498D01*
X166793506Y-105784463D01*
X166696815Y-105863815D01*
X166617463Y-105960506D01*
X166558498Y-106070820D01*
X166522188Y-106190518D01*
X166509928Y-106315000D01*
X166509928Y-106660674D01*
X166473724Y-106680026D01*
X166357999Y-106774999D01*
X166334201Y-106803997D01*
X165628198Y-107510001D01*
X144017804Y-107510001D01*
X137798708Y-101290906D01*
X137812236Y-101246309D01*
X137839943Y-100965000D01*
X137812236Y-100683691D01*
X137730182Y-100413192D01*
X137596932Y-100163899D01*
X137417608Y-99945392D01*
X137199101Y-99766068D01*
X137061318Y-99692421D01*
X137253131Y-99577385D01*
X137461519Y-99388414D01*
X137629037Y-99162420D01*
X137749246Y-98908087D01*
X137789904Y-98774039D01*
X137667915Y-98552000D01*
X136525000Y-98552000D01*
X136525000Y-98572000D01*
X136271000Y-98572000D01*
X136271000Y-98552000D01*
X135128085Y-98552000D01*
X135006096Y-98774039D01*
X135046754Y-98908087D01*
X135166963Y-99162420D01*
X135334481Y-99388414D01*
X135542869Y-99577385D01*
X135734682Y-99692421D01*
X135596899Y-99766068D01*
X135378392Y-99945392D01*
X135199068Y-100163899D01*
X135065818Y-100413192D01*
X134983764Y-100683691D01*
X134956057Y-100965000D01*
X134983764Y-101246309D01*
X135065818Y-101516808D01*
X135199068Y-101766101D01*
X135378392Y-101984608D01*
X135596899Y-102163932D01*
X135846192Y-102297182D01*
X136116691Y-102379236D01*
X136327508Y-102400000D01*
X136468492Y-102400000D01*
X136679309Y-102379236D01*
X136723906Y-102365708D01*
X143139206Y-108781009D01*
X143163000Y-108810002D01*
X143191993Y-108833796D01*
X143191997Y-108833800D01*
X143262686Y-108891812D01*
X143272407Y-108899790D01*
X137402002Y-114770195D01*
X137372998Y-114793998D01*
X137317870Y-114861173D01*
X137278025Y-114909723D01*
X137239343Y-114982091D01*
X137207453Y-115041753D01*
X137163996Y-115185014D01*
X137152999Y-115296667D01*
X137152999Y-115296677D01*
X137149323Y-115333999D01*
X137152999Y-115371322D01*
X137153000Y-116945667D01*
X137149323Y-116982999D01*
X137153000Y-117020332D01*
X137163997Y-117131985D01*
X137164604Y-117133985D01*
X137207453Y-117275245D01*
X137278025Y-117407275D01*
X137372998Y-117523000D01*
X137488723Y-117617973D01*
X137615475Y-117685724D01*
X137619153Y-117687690D01*
X137654304Y-117864405D01*
X137754939Y-118107359D01*
X137901038Y-118326013D01*
X138086987Y-118511962D01*
X138305641Y-118658061D01*
X138548595Y-118758696D01*
X138806514Y-118810000D01*
X139069486Y-118810000D01*
X139327405Y-118758696D01*
X139570359Y-118658061D01*
X139789013Y-118511962D01*
X139974962Y-118326013D01*
X140035775Y-118235000D01*
X141796789Y-118235000D01*
X145891431Y-122329644D01*
X145721394Y-122420531D01*
X145493203Y-122607803D01*
X145305931Y-122835995D01*
X145288000Y-122869541D01*
X145270069Y-122835994D01*
X145082797Y-122607803D01*
X144854605Y-122420531D01*
X144594263Y-122281375D01*
X144311776Y-122195684D01*
X144018000Y-122166749D01*
X143724223Y-122195684D01*
X143441736Y-122281375D01*
X143181394Y-122420531D01*
X142953203Y-122607803D01*
X142765931Y-122835995D01*
X142748000Y-122869541D01*
X142730069Y-122835994D01*
X142542797Y-122607803D01*
X142314605Y-122420531D01*
X142054263Y-122281375D01*
X141771776Y-122195684D01*
X141478000Y-122166749D01*
X141184223Y-122195684D01*
X140901736Y-122281375D01*
X140641394Y-122420531D01*
X140413203Y-122607803D01*
X140225931Y-122835995D01*
X140208000Y-122869541D01*
X140190069Y-122835994D01*
X140002797Y-122607803D01*
X139774605Y-122420531D01*
X139514263Y-122281375D01*
X139231776Y-122195684D01*
X138938000Y-122166749D01*
X138644223Y-122195684D01*
X138361736Y-122281375D01*
X138101394Y-122420531D01*
X137873203Y-122607803D01*
X137685931Y-122835995D01*
X137546775Y-123096337D01*
X137461084Y-123378824D01*
X137439400Y-123598982D01*
X137439400Y-124051019D01*
X137461084Y-124271177D01*
X137546775Y-124553664D01*
X137685931Y-124814006D01*
X137812311Y-124968000D01*
X127381293Y-124968000D01*
X127532508Y-124602935D01*
X127635000Y-124087677D01*
X127635000Y-123562323D01*
X127532508Y-123047065D01*
X127331464Y-122561702D01*
X127039594Y-122124887D01*
X126668113Y-121753406D01*
X126231298Y-121461536D01*
X125745935Y-121260492D01*
X125230677Y-121158000D01*
X124705323Y-121158000D01*
X124190065Y-121260492D01*
X123704702Y-121461536D01*
X123267887Y-121753406D01*
X122896406Y-122124887D01*
X122604536Y-122561702D01*
X122403492Y-123047065D01*
X122301000Y-123562323D01*
X122301000Y-124087677D01*
X122403492Y-124602935D01*
X122554707Y-124968000D01*
X112395000Y-124968000D01*
X112395000Y-88015324D01*
X124973000Y-88015324D01*
X124973000Y-88514676D01*
X125070418Y-89004432D01*
X125261512Y-89465773D01*
X125538937Y-89880968D01*
X125892032Y-90234063D01*
X126307227Y-90511488D01*
X126768568Y-90702582D01*
X127258324Y-90800000D01*
X127757676Y-90800000D01*
X128247432Y-90702582D01*
X128688205Y-90520007D01*
X129484205Y-91316008D01*
X129507999Y-91345001D01*
X129536992Y-91368795D01*
X129536996Y-91368799D01*
X129607685Y-91426811D01*
X129623724Y-91439974D01*
X129633024Y-91444945D01*
X129348937Y-91729032D01*
X129071512Y-92144227D01*
X128880418Y-92605568D01*
X128783000Y-93095324D01*
X128783000Y-93594676D01*
X128880418Y-94084432D01*
X129071512Y-94545773D01*
X129348937Y-94960968D01*
X129702032Y-95314063D01*
X130117227Y-95591488D01*
X130413846Y-95714352D01*
X128688206Y-97439993D01*
X128247432Y-97257418D01*
X127757676Y-97160000D01*
X127258324Y-97160000D01*
X126768568Y-97257418D01*
X126307227Y-97448512D01*
X125892032Y-97725937D01*
X125538937Y-98079032D01*
X125261512Y-98494227D01*
X125070418Y-98955568D01*
X124973000Y-99445324D01*
X124973000Y-99944676D01*
X125070418Y-100434432D01*
X125261512Y-100895773D01*
X125538937Y-101310968D01*
X125892032Y-101664063D01*
X126307227Y-101941488D01*
X126768568Y-102132582D01*
X127258324Y-102230000D01*
X127757676Y-102230000D01*
X128247432Y-102132582D01*
X128708773Y-101941488D01*
X129123968Y-101664063D01*
X129477063Y-101310968D01*
X129754488Y-100895773D01*
X129945582Y-100434432D01*
X130043000Y-99944676D01*
X130043000Y-99445324D01*
X129945582Y-98955568D01*
X129763007Y-98514794D01*
X131632802Y-96645000D01*
X135177099Y-96645000D01*
X135199068Y-96686101D01*
X135378392Y-96904608D01*
X135596899Y-97083932D01*
X135734682Y-97157579D01*
X135542869Y-97272615D01*
X135334481Y-97461586D01*
X135166963Y-97687580D01*
X135046754Y-97941913D01*
X135006096Y-98075961D01*
X135128085Y-98298000D01*
X136271000Y-98298000D01*
X136271000Y-98278000D01*
X136525000Y-98278000D01*
X136525000Y-98298000D01*
X137667915Y-98298000D01*
X137789904Y-98075961D01*
X137749246Y-97941913D01*
X137629037Y-97687580D01*
X137461519Y-97461586D01*
X137253131Y-97272615D01*
X137061318Y-97157579D01*
X137199101Y-97083932D01*
X137417608Y-96904608D01*
X137596932Y-96686101D01*
X137730182Y-96436808D01*
X137812236Y-96166309D01*
X137839943Y-95885000D01*
X137812236Y-95603691D01*
X137730182Y-95333192D01*
X137596932Y-95083899D01*
X137417608Y-94865392D01*
X137199101Y-94686068D01*
X137066142Y-94615000D01*
X137199101Y-94543932D01*
X137417608Y-94364608D01*
X137596932Y-94146101D01*
X137730182Y-93896808D01*
X137812236Y-93626309D01*
X137839943Y-93345000D01*
X137812236Y-93063691D01*
X137730182Y-92793192D01*
X137596932Y-92543899D01*
X137417608Y-92325392D01*
X137199101Y-92146068D01*
X137066142Y-92075000D01*
X137199101Y-92003932D01*
X137417608Y-91824608D01*
X137596932Y-91606101D01*
X137730182Y-91356808D01*
X137812236Y-91086309D01*
X137839943Y-90805000D01*
X137812236Y-90523691D01*
X137730182Y-90253192D01*
X137596932Y-90003899D01*
X137417608Y-89785392D01*
X137199101Y-89606068D01*
X137066142Y-89535000D01*
X137199101Y-89463932D01*
X137417608Y-89284608D01*
X137596932Y-89066101D01*
X137730182Y-88816808D01*
X137812236Y-88546309D01*
X137839943Y-88265000D01*
X137812236Y-87983691D01*
X137730182Y-87713192D01*
X137596932Y-87463899D01*
X137417608Y-87245392D01*
X137199101Y-87066068D01*
X137066142Y-86995000D01*
X137199101Y-86923932D01*
X137417608Y-86744608D01*
X137596932Y-86526101D01*
X137730182Y-86276808D01*
X137812236Y-86006309D01*
X137839943Y-85725000D01*
X137812236Y-85443691D01*
X137730182Y-85173192D01*
X137596932Y-84923899D01*
X137417608Y-84705392D01*
X137304518Y-84612581D01*
X137322482Y-84610812D01*
X137442180Y-84574502D01*
X137552494Y-84515537D01*
X137649185Y-84436185D01*
X137728537Y-84339494D01*
X137787502Y-84229180D01*
X137823812Y-84109482D01*
X137836072Y-83985000D01*
X137833000Y-83470750D01*
X137674250Y-83312000D01*
X136525000Y-83312000D01*
X136525000Y-83332000D01*
X136271000Y-83332000D01*
X136271000Y-83312000D01*
X135121750Y-83312000D01*
X134963000Y-83470750D01*
X134959928Y-83985000D01*
X134972188Y-84109482D01*
X135008498Y-84229180D01*
X135067463Y-84339494D01*
X135146815Y-84436185D01*
X135243506Y-84515537D01*
X135353820Y-84574502D01*
X135473518Y-84610812D01*
X135491482Y-84612581D01*
X135378392Y-84705392D01*
X135199068Y-84923899D01*
X135065818Y-85173192D01*
X134983764Y-85443691D01*
X134956057Y-85725000D01*
X134958598Y-85750796D01*
X133012916Y-83805115D01*
X133287063Y-83530968D01*
X133564488Y-83115773D01*
X133755582Y-82654432D01*
X133809175Y-82385000D01*
X134959928Y-82385000D01*
X134963000Y-82899250D01*
X135121750Y-83058000D01*
X136271000Y-83058000D01*
X136271000Y-81908750D01*
X136525000Y-81908750D01*
X136525000Y-83058000D01*
X137674250Y-83058000D01*
X137833000Y-82899250D01*
X137836072Y-82385000D01*
X137823812Y-82260518D01*
X137787502Y-82140820D01*
X137728537Y-82030506D01*
X137649185Y-81933815D01*
X137552494Y-81854463D01*
X137442180Y-81795498D01*
X137322482Y-81759188D01*
X137198000Y-81746928D01*
X136683750Y-81750000D01*
X136525000Y-81908750D01*
X136271000Y-81908750D01*
X136112250Y-81750000D01*
X135598000Y-81746928D01*
X135473518Y-81759188D01*
X135353820Y-81795498D01*
X135243506Y-81854463D01*
X135146815Y-81933815D01*
X135067463Y-82030506D01*
X135008498Y-82140820D01*
X134972188Y-82260518D01*
X134959928Y-82385000D01*
X133809175Y-82385000D01*
X133853000Y-82164676D01*
X133853000Y-81665324D01*
X133755582Y-81175568D01*
X133564488Y-80714227D01*
X133287063Y-80299032D01*
X132933968Y-79945937D01*
X132518773Y-79668512D01*
X132057432Y-79477418D01*
X131567676Y-79380000D01*
X131068324Y-79380000D01*
X130578568Y-79477418D01*
X130117227Y-79668512D01*
X129702032Y-79945937D01*
X129348937Y-80299032D01*
X129071512Y-80714227D01*
X128880418Y-81175568D01*
X128783000Y-81665324D01*
X128783000Y-82164676D01*
X128880418Y-82654432D01*
X129071512Y-83115773D01*
X129348937Y-83530968D01*
X129702032Y-83884063D01*
X130117227Y-84161488D01*
X130578568Y-84352582D01*
X131068324Y-84450000D01*
X131508199Y-84450000D01*
X134997292Y-87939094D01*
X134983764Y-87983691D01*
X134956057Y-88265000D01*
X134983764Y-88546309D01*
X135065818Y-88816808D01*
X135199068Y-89066101D01*
X135378392Y-89284608D01*
X135596899Y-89463932D01*
X135729858Y-89535000D01*
X135596899Y-89606068D01*
X135378392Y-89785392D01*
X135199068Y-90003899D01*
X135177099Y-90045000D01*
X130362803Y-90045000D01*
X129763007Y-89445205D01*
X129945582Y-89004432D01*
X130043000Y-88514676D01*
X130043000Y-88015324D01*
X129945582Y-87525568D01*
X129754488Y-87064227D01*
X129477063Y-86649032D01*
X129123968Y-86295937D01*
X128708773Y-86018512D01*
X128247432Y-85827418D01*
X127757676Y-85730000D01*
X127258324Y-85730000D01*
X126768568Y-85827418D01*
X126307227Y-86018512D01*
X125892032Y-86295937D01*
X125538937Y-86649032D01*
X125261512Y-87064227D01*
X125070418Y-87525568D01*
X124973000Y-88015324D01*
X112395000Y-88015324D01*
X112395000Y-74422000D01*
X123824707Y-74422000D01*
X123673492Y-74787065D01*
X123673492Y-74787065D01*
G37*
X123673492Y-74787065D02*
X123571000Y-75302323D01*
X123571000Y-75827677D01*
X123673492Y-76342935D01*
X123874536Y-76828298D01*
X124166406Y-77265113D01*
X124537887Y-77636594D01*
X124974702Y-77928464D01*
X125460065Y-78129508D01*
X125975323Y-78232000D01*
X126500677Y-78232000D01*
X127015935Y-78129508D01*
X127501298Y-77928464D01*
X127938113Y-77636594D01*
X128309594Y-77265113D01*
X128601464Y-76828298D01*
X128657001Y-76694219D01*
X128729203Y-76782197D01*
X128957395Y-76969469D01*
X129034001Y-77010416D01*
X129034000Y-78171198D01*
X126848352Y-80356847D01*
X126727271Y-80380932D01*
X126557111Y-80451414D01*
X126403972Y-80553738D01*
X126273738Y-80683972D01*
X126171414Y-80837111D01*
X126100932Y-81007271D01*
X126065000Y-81187911D01*
X126065000Y-81372089D01*
X126100932Y-81552729D01*
X126171414Y-81722889D01*
X126273738Y-81876028D01*
X126403972Y-82006262D01*
X126557111Y-82108586D01*
X126727271Y-82179068D01*
X126907911Y-82215000D01*
X127092089Y-82215000D01*
X127272729Y-82179068D01*
X127442889Y-82108586D01*
X127596028Y-82006262D01*
X127726262Y-81876028D01*
X127828586Y-81722889D01*
X127899068Y-81552729D01*
X127923153Y-81431648D01*
X130305004Y-79049798D01*
X130334001Y-79026001D01*
X130428974Y-78910276D01*
X130499546Y-78778247D01*
X130543003Y-78634986D01*
X130554000Y-78523333D01*
X130554000Y-78523325D01*
X130557676Y-78486000D01*
X130554000Y-78448675D01*
X130554000Y-77010416D01*
X130630606Y-76969469D01*
X130858797Y-76782197D01*
X131046069Y-76554006D01*
X131064000Y-76520459D01*
X131081931Y-76554006D01*
X131269203Y-76782197D01*
X131497395Y-76969469D01*
X131757737Y-77108625D01*
X131981789Y-77176590D01*
X133696847Y-78891649D01*
X133720932Y-79012729D01*
X133791414Y-79182889D01*
X133893738Y-79336028D01*
X134023972Y-79466262D01*
X134177111Y-79568586D01*
X134347271Y-79639068D01*
X134527911Y-79675000D01*
X134712089Y-79675000D01*
X134892729Y-79639068D01*
X135062889Y-79568586D01*
X135216028Y-79466262D01*
X135346262Y-79336028D01*
X135448586Y-79182889D01*
X135519068Y-79012729D01*
X135555000Y-78832089D01*
X135555000Y-78647911D01*
X135519068Y-78467271D01*
X135448586Y-78297111D01*
X135346262Y-78143972D01*
X135216028Y-78013738D01*
X135062889Y-77911414D01*
X134892729Y-77840932D01*
X134771649Y-77816847D01*
X133551243Y-76596442D01*
X133586069Y-76554006D01*
X133604000Y-76520459D01*
X133621931Y-76554006D01*
X133809203Y-76782197D01*
X134037395Y-76969469D01*
X134297737Y-77108625D01*
X134580224Y-77194316D01*
X134874000Y-77223251D01*
X135167777Y-77194316D01*
X135450264Y-77108625D01*
X135710606Y-76969469D01*
X135938797Y-76782197D01*
X136126069Y-76554006D01*
X136147424Y-76514053D01*
X136295514Y-76716729D01*
X136511965Y-76915733D01*
X136763081Y-77068686D01*
X137039211Y-77169709D01*
X137054974Y-77172358D01*
X137287000Y-77051217D01*
X137287000Y-75692000D01*
X137267000Y-75692000D01*
X137267000Y-75438000D01*
X137287000Y-75438000D01*
X137287000Y-75418000D01*
X137541000Y-75418000D01*
X137541000Y-75438000D01*
X137561000Y-75438000D01*
X137561000Y-75692000D01*
X137541000Y-75692000D01*
X137541000Y-77051217D01*
X137773026Y-77172358D01*
X137788789Y-77169709D01*
X138064919Y-77068686D01*
X138316035Y-76915733D01*
X138532486Y-76716729D01*
X138680576Y-76514053D01*
X138701931Y-76554006D01*
X138889203Y-76782197D01*
X139117395Y-76969469D01*
X139377737Y-77108625D01*
X139660224Y-77194316D01*
X139954000Y-77223251D01*
X140247777Y-77194316D01*
X140530264Y-77108625D01*
X140790606Y-76969469D01*
X141018797Y-76782197D01*
X141206069Y-76554006D01*
X141224000Y-76520459D01*
X141241931Y-76554006D01*
X141429203Y-76782197D01*
X141657395Y-76969469D01*
X141917737Y-77108625D01*
X142200224Y-77194316D01*
X142494000Y-77223251D01*
X142787777Y-77194316D01*
X143070264Y-77108625D01*
X143330606Y-76969469D01*
X143558797Y-76782197D01*
X143746069Y-76554006D01*
X143764000Y-76520459D01*
X143781931Y-76554006D01*
X143969203Y-76782197D01*
X144197395Y-76969469D01*
X144457737Y-77108625D01*
X144740224Y-77194316D01*
X145034000Y-77223251D01*
X145327777Y-77194316D01*
X145610264Y-77108625D01*
X145870606Y-76969469D01*
X146098797Y-76782197D01*
X146286069Y-76554006D01*
X146304000Y-76520459D01*
X146321931Y-76554006D01*
X146509203Y-76782197D01*
X146737395Y-76969469D01*
X146997737Y-77108625D01*
X147280224Y-77194316D01*
X147574000Y-77223251D01*
X147867777Y-77194316D01*
X148150264Y-77108625D01*
X148410606Y-76969469D01*
X148638797Y-76782197D01*
X148826069Y-76554006D01*
X148844000Y-76520459D01*
X148861931Y-76554006D01*
X149049203Y-76782197D01*
X149277395Y-76969469D01*
X149537737Y-77108625D01*
X149820224Y-77194316D01*
X150114000Y-77223251D01*
X150407777Y-77194316D01*
X150690264Y-77108625D01*
X150950606Y-76969469D01*
X151178797Y-76782197D01*
X151366069Y-76554006D01*
X151384000Y-76520459D01*
X151401931Y-76554006D01*
X151589203Y-76782197D01*
X151817395Y-76969469D01*
X152077737Y-77108625D01*
X152351520Y-77191676D01*
X147461997Y-82081200D01*
X147432999Y-82104998D01*
X147409201Y-82133996D01*
X147409200Y-82133997D01*
X147338025Y-82220723D01*
X147267453Y-82352753D01*
X147223997Y-82496014D01*
X147209323Y-82644999D01*
X147213000Y-82682331D01*
X147212999Y-84562676D01*
X147209323Y-84599999D01*
X147212999Y-84637321D01*
X147212999Y-84637331D01*
X147223996Y-84748984D01*
X147267453Y-84892245D01*
X147338025Y-85024275D01*
X147377870Y-85072825D01*
X147432998Y-85140000D01*
X147462001Y-85163803D01*
X147697292Y-85399094D01*
X147683764Y-85443691D01*
X147656057Y-85725000D01*
X147683764Y-86006309D01*
X147765818Y-86276808D01*
X147899068Y-86526101D01*
X148078392Y-86744608D01*
X148296899Y-86923932D01*
X148429858Y-86995000D01*
X148296899Y-87066068D01*
X148078392Y-87245392D01*
X147899068Y-87463899D01*
X147765818Y-87713192D01*
X147683764Y-87983691D01*
X147656057Y-88265000D01*
X147683764Y-88546309D01*
X147765818Y-88816808D01*
X147899068Y-89066101D01*
X148078392Y-89284608D01*
X148296899Y-89463932D01*
X148429858Y-89535000D01*
X148296899Y-89606068D01*
X148078392Y-89785392D01*
X147899068Y-90003899D01*
X147765818Y-90253192D01*
X147683764Y-90523691D01*
X147656057Y-90805000D01*
X147683764Y-91086309D01*
X147765818Y-91356808D01*
X147899068Y-91606101D01*
X148078392Y-91824608D01*
X148296899Y-92003932D01*
X148429858Y-92075000D01*
X148296899Y-92146068D01*
X148078392Y-92325392D01*
X147899068Y-92543899D01*
X147765818Y-92793192D01*
X147683764Y-93063691D01*
X147656057Y-93345000D01*
X147683764Y-93626309D01*
X147765818Y-93896808D01*
X147899068Y-94146101D01*
X148078392Y-94364608D01*
X148296899Y-94543932D01*
X148429858Y-94615000D01*
X148296899Y-94686068D01*
X148078392Y-94865392D01*
X147899068Y-95083899D01*
X147765818Y-95333192D01*
X147683764Y-95603691D01*
X147656057Y-95885000D01*
X147683764Y-96166309D01*
X147765818Y-96436808D01*
X147899068Y-96686101D01*
X148078392Y-96904608D01*
X148296899Y-97083932D01*
X148429858Y-97155000D01*
X148296899Y-97226068D01*
X148078392Y-97405392D01*
X147899068Y-97623899D01*
X147765818Y-97873192D01*
X147683764Y-98143691D01*
X147656057Y-98425000D01*
X147683764Y-98706309D01*
X147765818Y-98976808D01*
X147899068Y-99226101D01*
X148078392Y-99444608D01*
X148296899Y-99623932D01*
X148429858Y-99695000D01*
X148296899Y-99766068D01*
X148078392Y-99945392D01*
X147899068Y-100163899D01*
X147765818Y-100413192D01*
X147683764Y-100683691D01*
X147656057Y-100965000D01*
X147683764Y-101246309D01*
X147765818Y-101516808D01*
X147899068Y-101766101D01*
X148078392Y-101984608D01*
X148296899Y-102163932D01*
X148546192Y-102297182D01*
X148816691Y-102379236D01*
X149027508Y-102400000D01*
X149168492Y-102400000D01*
X149379309Y-102379236D01*
X149649808Y-102297182D01*
X149899101Y-102163932D01*
X150117608Y-101984608D01*
X150296932Y-101766101D01*
X150430182Y-101516808D01*
X150512236Y-101246309D01*
X150539943Y-100965000D01*
X150512236Y-100683691D01*
X150430182Y-100413192D01*
X150296932Y-100163899D01*
X150117608Y-99945392D01*
X149899101Y-99766068D01*
X149766142Y-99695000D01*
X149899101Y-99623932D01*
X150117608Y-99444608D01*
X150296932Y-99226101D01*
X150430182Y-98976808D01*
X150512236Y-98706309D01*
X150539943Y-98425000D01*
X150512236Y-98143691D01*
X150430182Y-97873192D01*
X150296932Y-97623899D01*
X150117608Y-97405392D01*
X149899101Y-97226068D01*
X149766142Y-97155000D01*
X149899101Y-97083932D01*
X150117608Y-96904608D01*
X150296932Y-96686101D01*
X150430182Y-96436808D01*
X150512236Y-96166309D01*
X150539943Y-95885000D01*
X150512236Y-95603691D01*
X150430182Y-95333192D01*
X150296932Y-95083899D01*
X150117608Y-94865392D01*
X149899101Y-94686068D01*
X149766142Y-94615000D01*
X149899101Y-94543932D01*
X150117608Y-94364608D01*
X150296932Y-94146101D01*
X150430182Y-93896808D01*
X150512236Y-93626309D01*
X150539943Y-93345000D01*
X150512236Y-93063691D01*
X150430182Y-92793192D01*
X150296932Y-92543899D01*
X150117608Y-92325392D01*
X149899101Y-92146068D01*
X149766142Y-92075000D01*
X149899101Y-92003932D01*
X150117608Y-91824608D01*
X150296932Y-91606101D01*
X150430182Y-91356808D01*
X150512236Y-91086309D01*
X150539943Y-90805000D01*
X150512236Y-90523691D01*
X150430182Y-90253192D01*
X150296932Y-90003899D01*
X150117608Y-89785392D01*
X149899101Y-89606068D01*
X149766142Y-89535000D01*
X149899101Y-89463932D01*
X150117608Y-89284608D01*
X150296932Y-89066101D01*
X150430182Y-88816808D01*
X150512236Y-88546309D01*
X150539943Y-88265000D01*
X150512236Y-87983691D01*
X150430182Y-87713192D01*
X150296932Y-87463899D01*
X150117608Y-87245392D01*
X149899101Y-87066068D01*
X149766142Y-86995000D01*
X149899101Y-86923932D01*
X150117608Y-86744608D01*
X150296932Y-86526101D01*
X150430182Y-86276808D01*
X150512236Y-86006309D01*
X150539943Y-85725000D01*
X150512236Y-85443691D01*
X150430182Y-85173192D01*
X150296932Y-84923899D01*
X150117608Y-84705392D01*
X149899101Y-84526068D01*
X149766142Y-84455000D01*
X149899101Y-84383932D01*
X150117608Y-84204608D01*
X150296932Y-83986101D01*
X150318901Y-83945000D01*
X154293078Y-83945000D01*
X154330400Y-83948676D01*
X154367722Y-83945000D01*
X154367733Y-83945000D01*
X154479386Y-83934003D01*
X154622647Y-83890546D01*
X154754676Y-83819974D01*
X154870401Y-83725001D01*
X154894204Y-83695997D01*
X161421101Y-77169101D01*
X161504224Y-77194316D01*
X161763182Y-77219822D01*
X161742860Y-77244585D01*
X161703015Y-77293135D01*
X161683157Y-77330287D01*
X161632443Y-77425165D01*
X161588986Y-77568426D01*
X161577989Y-77680079D01*
X161577989Y-77680089D01*
X161574313Y-77717411D01*
X161577989Y-77754733D01*
X161577990Y-87636287D01*
X161574313Y-87673619D01*
X161588987Y-87822604D01*
X161632443Y-87965865D01*
X161703015Y-88097895D01*
X161735929Y-88138000D01*
X161797989Y-88213620D01*
X161826986Y-88237418D01*
X162079462Y-88489894D01*
X162048392Y-88515392D01*
X161869068Y-88733899D01*
X161735818Y-88983192D01*
X161653764Y-89253691D01*
X161626057Y-89535000D01*
X161653764Y-89816309D01*
X161723136Y-90045000D01*
X157032802Y-90045000D01*
X156846688Y-89858886D01*
X156883000Y-89676335D01*
X156883000Y-89393665D01*
X156827853Y-89116426D01*
X156719680Y-88855273D01*
X156562637Y-88620241D01*
X156362759Y-88420363D01*
X156127727Y-88263320D01*
X155866574Y-88155147D01*
X155589335Y-88100000D01*
X155306665Y-88100000D01*
X155029426Y-88155147D01*
X154768273Y-88263320D01*
X154533241Y-88420363D01*
X154333363Y-88620241D01*
X154176320Y-88855273D01*
X154068147Y-89116426D01*
X154013000Y-89393665D01*
X154013000Y-89676335D01*
X154068147Y-89953574D01*
X154176320Y-90214727D01*
X154333363Y-90449759D01*
X154533241Y-90649637D01*
X154768273Y-90806680D01*
X155029426Y-90914853D01*
X155306665Y-90970000D01*
X155589335Y-90970000D01*
X155771886Y-90933688D01*
X155958001Y-91119803D01*
X155958000Y-95936956D01*
X155803241Y-96040363D01*
X155603363Y-96240241D01*
X155446320Y-96475273D01*
X155338147Y-96736426D01*
X155283000Y-97013665D01*
X155283000Y-97296335D01*
X155338147Y-97573574D01*
X155446320Y-97834727D01*
X155603363Y-98069759D01*
X155803241Y-98269637D01*
X156038273Y-98426680D01*
X156299426Y-98534853D01*
X156576665Y-98590000D01*
X156859335Y-98590000D01*
X157136574Y-98534853D01*
X157397727Y-98426680D01*
X157632759Y-98269637D01*
X157832637Y-98069759D01*
X157989680Y-97834727D01*
X158097853Y-97573574D01*
X158111684Y-97504039D01*
X162946096Y-97504039D01*
X162986754Y-97638087D01*
X163106963Y-97892420D01*
X163274481Y-98118414D01*
X163482869Y-98307385D01*
X163724119Y-98452070D01*
X163988960Y-98546909D01*
X164211000Y-98425624D01*
X164211000Y-97282000D01*
X164465000Y-97282000D01*
X164465000Y-98425624D01*
X164687040Y-98546909D01*
X164951881Y-98452070D01*
X165193131Y-98307385D01*
X165401519Y-98118414D01*
X165569037Y-97892420D01*
X165689246Y-97638087D01*
X165729904Y-97504039D01*
X165607915Y-97282000D01*
X164465000Y-97282000D01*
X164211000Y-97282000D01*
X163068085Y-97282000D01*
X162946096Y-97504039D01*
X158111684Y-97504039D01*
X158153000Y-97296335D01*
X158153000Y-97013665D01*
X158111685Y-96805961D01*
X162946096Y-96805961D01*
X163068085Y-97028000D01*
X164211000Y-97028000D01*
X164211000Y-95884376D01*
X164465000Y-95884376D01*
X164465000Y-97028000D01*
X165607915Y-97028000D01*
X165729904Y-96805961D01*
X165689246Y-96671913D01*
X165569037Y-96417580D01*
X165401519Y-96191586D01*
X165193131Y-96002615D01*
X164951881Y-95857930D01*
X164687040Y-95763091D01*
X164465000Y-95884376D01*
X164211000Y-95884376D01*
X163988960Y-95763091D01*
X163724119Y-95857930D01*
X163482869Y-96002615D01*
X163274481Y-96191586D01*
X163106963Y-96417580D01*
X162986754Y-96671913D01*
X162946096Y-96805961D01*
X158111685Y-96805961D01*
X158097853Y-96736426D01*
X157989680Y-96475273D01*
X157832637Y-96240241D01*
X157632759Y-96040363D01*
X157478000Y-95936957D01*
X157478000Y-91565000D01*
X163425680Y-91565000D01*
X163463002Y-91568676D01*
X163500324Y-91565000D01*
X163500335Y-91565000D01*
X163611988Y-91554003D01*
X163755249Y-91510546D01*
X163887278Y-91439974D01*
X164003003Y-91345001D01*
X164026806Y-91315997D01*
X165421003Y-89921801D01*
X165450001Y-89898003D01*
X165544974Y-89782278D01*
X165615546Y-89650249D01*
X165659003Y-89506988D01*
X165670000Y-89395335D01*
X165670000Y-89395326D01*
X165673676Y-89358003D01*
X165670000Y-89320680D01*
X165670000Y-84219893D01*
X165702204Y-84229662D01*
X165857934Y-84245000D01*
X165962066Y-84245000D01*
X166117796Y-84229662D01*
X166317607Y-84169050D01*
X166411809Y-84118698D01*
X166584750Y-84193872D01*
X166619938Y-84204540D01*
X166783000Y-84077257D01*
X166783000Y-83792133D01*
X166795622Y-83776753D01*
X166894050Y-83592607D01*
X166910000Y-83540027D01*
X166925950Y-83592607D01*
X167024378Y-83776753D01*
X167037000Y-83792133D01*
X167037000Y-84077257D01*
X167200062Y-84204540D01*
X167235250Y-84193872D01*
X167260394Y-84182942D01*
X167275026Y-84210316D01*
X167340422Y-84290000D01*
X167370000Y-84326041D01*
X167398998Y-84349839D01*
X169613001Y-86563844D01*
X169613001Y-88735064D01*
X169348773Y-88558512D01*
X168887432Y-88367418D01*
X168397676Y-88270000D01*
X167898324Y-88270000D01*
X167408568Y-88367418D01*
X166947227Y-88558512D01*
X166532032Y-88835937D01*
X166178937Y-89189032D01*
X165901512Y-89604227D01*
X165710418Y-90065568D01*
X165613000Y-90555324D01*
X165613000Y-91054676D01*
X165710418Y-91544432D01*
X165901512Y-92005773D01*
X166178937Y-92420968D01*
X166532032Y-92774063D01*
X166947227Y-93051488D01*
X167388001Y-93234063D01*
X167388000Y-97265937D01*
X166947227Y-97448512D01*
X166532032Y-97725937D01*
X166178937Y-98079032D01*
X165901512Y-98494227D01*
X165710418Y-98955568D01*
X165613000Y-99445324D01*
X165613000Y-99944676D01*
X165710418Y-100434432D01*
X165901512Y-100895773D01*
X166178937Y-101310968D01*
X166532032Y-101664063D01*
X166947227Y-101941488D01*
X167388001Y-102124063D01*
X167388000Y-105676928D01*
X167148000Y-105676928D01*
X167023518Y-105689188D01*
X166903820Y-105725498D01*
X166793506Y-105784463D01*
X166696815Y-105863815D01*
X166617463Y-105960506D01*
X166558498Y-106070820D01*
X166522188Y-106190518D01*
X166509928Y-106315000D01*
X166509928Y-106660674D01*
X166473724Y-106680026D01*
X166357999Y-106774999D01*
X166334201Y-106803997D01*
X165628198Y-107510001D01*
X144017804Y-107510001D01*
X137798708Y-101290906D01*
X137812236Y-101246309D01*
X137839943Y-100965000D01*
X137812236Y-100683691D01*
X137730182Y-100413192D01*
X137596932Y-100163899D01*
X137417608Y-99945392D01*
X137199101Y-99766068D01*
X137061318Y-99692421D01*
X137253131Y-99577385D01*
X137461519Y-99388414D01*
X137629037Y-99162420D01*
X137749246Y-98908087D01*
X137789904Y-98774039D01*
X137667915Y-98552000D01*
X136525000Y-98552000D01*
X136525000Y-98572000D01*
X136271000Y-98572000D01*
X136271000Y-98552000D01*
X135128085Y-98552000D01*
X135006096Y-98774039D01*
X135046754Y-98908087D01*
X135166963Y-99162420D01*
X135334481Y-99388414D01*
X135542869Y-99577385D01*
X135734682Y-99692421D01*
X135596899Y-99766068D01*
X135378392Y-99945392D01*
X135199068Y-100163899D01*
X135065818Y-100413192D01*
X134983764Y-100683691D01*
X134956057Y-100965000D01*
X134983764Y-101246309D01*
X135065818Y-101516808D01*
X135199068Y-101766101D01*
X135378392Y-101984608D01*
X135596899Y-102163932D01*
X135846192Y-102297182D01*
X136116691Y-102379236D01*
X136327508Y-102400000D01*
X136468492Y-102400000D01*
X136679309Y-102379236D01*
X136723906Y-102365708D01*
X143139206Y-108781009D01*
X143163000Y-108810002D01*
X143191993Y-108833796D01*
X143191997Y-108833800D01*
X143262686Y-108891812D01*
X143272407Y-108899790D01*
X137402002Y-114770195D01*
X137372998Y-114793998D01*
X137317870Y-114861173D01*
X137278025Y-114909723D01*
X137239343Y-114982091D01*
X137207453Y-115041753D01*
X137163996Y-115185014D01*
X137152999Y-115296667D01*
X137152999Y-115296677D01*
X137149323Y-115333999D01*
X137152999Y-115371322D01*
X137153000Y-116945667D01*
X137149323Y-116982999D01*
X137153000Y-117020332D01*
X137163997Y-117131985D01*
X137164604Y-117133985D01*
X137207453Y-117275245D01*
X137278025Y-117407275D01*
X137372998Y-117523000D01*
X137488723Y-117617973D01*
X137615475Y-117685724D01*
X137619153Y-117687690D01*
X137654304Y-117864405D01*
X137754939Y-118107359D01*
X137901038Y-118326013D01*
X138086987Y-118511962D01*
X138305641Y-118658061D01*
X138548595Y-118758696D01*
X138806514Y-118810000D01*
X139069486Y-118810000D01*
X139327405Y-118758696D01*
X139570359Y-118658061D01*
X139789013Y-118511962D01*
X139974962Y-118326013D01*
X140035775Y-118235000D01*
X141796789Y-118235000D01*
X145891431Y-122329644D01*
X145721394Y-122420531D01*
X145493203Y-122607803D01*
X145305931Y-122835995D01*
X145288000Y-122869541D01*
X145270069Y-122835994D01*
X145082797Y-122607803D01*
X144854605Y-122420531D01*
X144594263Y-122281375D01*
X144311776Y-122195684D01*
X144018000Y-122166749D01*
X143724223Y-122195684D01*
X143441736Y-122281375D01*
X143181394Y-122420531D01*
X142953203Y-122607803D01*
X142765931Y-122835995D01*
X142748000Y-122869541D01*
X142730069Y-122835994D01*
X142542797Y-122607803D01*
X142314605Y-122420531D01*
X142054263Y-122281375D01*
X141771776Y-122195684D01*
X141478000Y-122166749D01*
X141184223Y-122195684D01*
X140901736Y-122281375D01*
X140641394Y-122420531D01*
X140413203Y-122607803D01*
X140225931Y-122835995D01*
X140208000Y-122869541D01*
X140190069Y-122835994D01*
X140002797Y-122607803D01*
X139774605Y-122420531D01*
X139514263Y-122281375D01*
X139231776Y-122195684D01*
X138938000Y-122166749D01*
X138644223Y-122195684D01*
X138361736Y-122281375D01*
X138101394Y-122420531D01*
X137873203Y-122607803D01*
X137685931Y-122835995D01*
X137546775Y-123096337D01*
X137461084Y-123378824D01*
X137439400Y-123598982D01*
X137439400Y-124051019D01*
X137461084Y-124271177D01*
X137546775Y-124553664D01*
X137685931Y-124814006D01*
X137812311Y-124968000D01*
X127381293Y-124968000D01*
X127532508Y-124602935D01*
X127635000Y-124087677D01*
X127635000Y-123562323D01*
X127532508Y-123047065D01*
X127331464Y-122561702D01*
X127039594Y-122124887D01*
X126668113Y-121753406D01*
X126231298Y-121461536D01*
X125745935Y-121260492D01*
X125230677Y-121158000D01*
X124705323Y-121158000D01*
X124190065Y-121260492D01*
X123704702Y-121461536D01*
X123267887Y-121753406D01*
X122896406Y-122124887D01*
X122604536Y-122561702D01*
X122403492Y-123047065D01*
X122301000Y-123562323D01*
X122301000Y-124087677D01*
X122403492Y-124602935D01*
X122554707Y-124968000D01*
X112395000Y-124968000D01*
X112395000Y-88015324D01*
X124973000Y-88015324D01*
X124973000Y-88514676D01*
X125070418Y-89004432D01*
X125261512Y-89465773D01*
X125538937Y-89880968D01*
X125892032Y-90234063D01*
X126307227Y-90511488D01*
X126768568Y-90702582D01*
X127258324Y-90800000D01*
X127757676Y-90800000D01*
X128247432Y-90702582D01*
X128688205Y-90520007D01*
X129484205Y-91316008D01*
X129507999Y-91345001D01*
X129536992Y-91368795D01*
X129536996Y-91368799D01*
X129607685Y-91426811D01*
X129623724Y-91439974D01*
X129633024Y-91444945D01*
X129348937Y-91729032D01*
X129071512Y-92144227D01*
X128880418Y-92605568D01*
X128783000Y-93095324D01*
X128783000Y-93594676D01*
X128880418Y-94084432D01*
X129071512Y-94545773D01*
X129348937Y-94960968D01*
X129702032Y-95314063D01*
X130117227Y-95591488D01*
X130413846Y-95714352D01*
X128688206Y-97439993D01*
X128247432Y-97257418D01*
X127757676Y-97160000D01*
X127258324Y-97160000D01*
X126768568Y-97257418D01*
X126307227Y-97448512D01*
X125892032Y-97725937D01*
X125538937Y-98079032D01*
X125261512Y-98494227D01*
X125070418Y-98955568D01*
X124973000Y-99445324D01*
X124973000Y-99944676D01*
X125070418Y-100434432D01*
X125261512Y-100895773D01*
X125538937Y-101310968D01*
X125892032Y-101664063D01*
X126307227Y-101941488D01*
X126768568Y-102132582D01*
X127258324Y-102230000D01*
X127757676Y-102230000D01*
X128247432Y-102132582D01*
X128708773Y-101941488D01*
X129123968Y-101664063D01*
X129477063Y-101310968D01*
X129754488Y-100895773D01*
X129945582Y-100434432D01*
X130043000Y-99944676D01*
X130043000Y-99445324D01*
X129945582Y-98955568D01*
X129763007Y-98514794D01*
X131632802Y-96645000D01*
X135177099Y-96645000D01*
X135199068Y-96686101D01*
X135378392Y-96904608D01*
X135596899Y-97083932D01*
X135734682Y-97157579D01*
X135542869Y-97272615D01*
X135334481Y-97461586D01*
X135166963Y-97687580D01*
X135046754Y-97941913D01*
X135006096Y-98075961D01*
X135128085Y-98298000D01*
X136271000Y-98298000D01*
X136271000Y-98278000D01*
X136525000Y-98278000D01*
X136525000Y-98298000D01*
X137667915Y-98298000D01*
X137789904Y-98075961D01*
X137749246Y-97941913D01*
X137629037Y-97687580D01*
X137461519Y-97461586D01*
X137253131Y-97272615D01*
X137061318Y-97157579D01*
X137199101Y-97083932D01*
X137417608Y-96904608D01*
X137596932Y-96686101D01*
X137730182Y-96436808D01*
X137812236Y-96166309D01*
X137839943Y-95885000D01*
X137812236Y-95603691D01*
X137730182Y-95333192D01*
X137596932Y-95083899D01*
X137417608Y-94865392D01*
X137199101Y-94686068D01*
X137066142Y-94615000D01*
X137199101Y-94543932D01*
X137417608Y-94364608D01*
X137596932Y-94146101D01*
X137730182Y-93896808D01*
X137812236Y-93626309D01*
X137839943Y-93345000D01*
X137812236Y-93063691D01*
X137730182Y-92793192D01*
X137596932Y-92543899D01*
X137417608Y-92325392D01*
X137199101Y-92146068D01*
X137066142Y-92075000D01*
X137199101Y-92003932D01*
X137417608Y-91824608D01*
X137596932Y-91606101D01*
X137730182Y-91356808D01*
X137812236Y-91086309D01*
X137839943Y-90805000D01*
X137812236Y-90523691D01*
X137730182Y-90253192D01*
X137596932Y-90003899D01*
X137417608Y-89785392D01*
X137199101Y-89606068D01*
X137066142Y-89535000D01*
X137199101Y-89463932D01*
X137417608Y-89284608D01*
X137596932Y-89066101D01*
X137730182Y-88816808D01*
X137812236Y-88546309D01*
X137839943Y-88265000D01*
X137812236Y-87983691D01*
X137730182Y-87713192D01*
X137596932Y-87463899D01*
X137417608Y-87245392D01*
X137199101Y-87066068D01*
X137066142Y-86995000D01*
X137199101Y-86923932D01*
X137417608Y-86744608D01*
X137596932Y-86526101D01*
X137730182Y-86276808D01*
X137812236Y-86006309D01*
X137839943Y-85725000D01*
X137812236Y-85443691D01*
X137730182Y-85173192D01*
X137596932Y-84923899D01*
X137417608Y-84705392D01*
X137304518Y-84612581D01*
X137322482Y-84610812D01*
X137442180Y-84574502D01*
X137552494Y-84515537D01*
X137649185Y-84436185D01*
X137728537Y-84339494D01*
X137787502Y-84229180D01*
X137823812Y-84109482D01*
X137836072Y-83985000D01*
X137833000Y-83470750D01*
X137674250Y-83312000D01*
X136525000Y-83312000D01*
X136525000Y-83332000D01*
X136271000Y-83332000D01*
X136271000Y-83312000D01*
X135121750Y-83312000D01*
X134963000Y-83470750D01*
X134959928Y-83985000D01*
X134972188Y-84109482D01*
X135008498Y-84229180D01*
X135067463Y-84339494D01*
X135146815Y-84436185D01*
X135243506Y-84515537D01*
X135353820Y-84574502D01*
X135473518Y-84610812D01*
X135491482Y-84612581D01*
X135378392Y-84705392D01*
X135199068Y-84923899D01*
X135065818Y-85173192D01*
X134983764Y-85443691D01*
X134956057Y-85725000D01*
X134958598Y-85750796D01*
X133012916Y-83805115D01*
X133287063Y-83530968D01*
X133564488Y-83115773D01*
X133755582Y-82654432D01*
X133809175Y-82385000D01*
X134959928Y-82385000D01*
X134963000Y-82899250D01*
X135121750Y-83058000D01*
X136271000Y-83058000D01*
X136271000Y-81908750D01*
X136525000Y-81908750D01*
X136525000Y-83058000D01*
X137674250Y-83058000D01*
X137833000Y-82899250D01*
X137836072Y-82385000D01*
X137823812Y-82260518D01*
X137787502Y-82140820D01*
X137728537Y-82030506D01*
X137649185Y-81933815D01*
X137552494Y-81854463D01*
X137442180Y-81795498D01*
X137322482Y-81759188D01*
X137198000Y-81746928D01*
X136683750Y-81750000D01*
X136525000Y-81908750D01*
X136271000Y-81908750D01*
X136112250Y-81750000D01*
X135598000Y-81746928D01*
X135473518Y-81759188D01*
X135353820Y-81795498D01*
X135243506Y-81854463D01*
X135146815Y-81933815D01*
X135067463Y-82030506D01*
X135008498Y-82140820D01*
X134972188Y-82260518D01*
X134959928Y-82385000D01*
X133809175Y-82385000D01*
X133853000Y-82164676D01*
X133853000Y-81665324D01*
X133755582Y-81175568D01*
X133564488Y-80714227D01*
X133287063Y-80299032D01*
X132933968Y-79945937D01*
X132518773Y-79668512D01*
X132057432Y-79477418D01*
X131567676Y-79380000D01*
X131068324Y-79380000D01*
X130578568Y-79477418D01*
X130117227Y-79668512D01*
X129702032Y-79945937D01*
X129348937Y-80299032D01*
X129071512Y-80714227D01*
X128880418Y-81175568D01*
X128783000Y-81665324D01*
X128783000Y-82164676D01*
X128880418Y-82654432D01*
X129071512Y-83115773D01*
X129348937Y-83530968D01*
X129702032Y-83884063D01*
X130117227Y-84161488D01*
X130578568Y-84352582D01*
X131068324Y-84450000D01*
X131508199Y-84450000D01*
X134997292Y-87939094D01*
X134983764Y-87983691D01*
X134956057Y-88265000D01*
X134983764Y-88546309D01*
X135065818Y-88816808D01*
X135199068Y-89066101D01*
X135378392Y-89284608D01*
X135596899Y-89463932D01*
X135729858Y-89535000D01*
X135596899Y-89606068D01*
X135378392Y-89785392D01*
X135199068Y-90003899D01*
X135177099Y-90045000D01*
X130362803Y-90045000D01*
X129763007Y-89445205D01*
X129945582Y-89004432D01*
X130043000Y-88514676D01*
X130043000Y-88015324D01*
X129945582Y-87525568D01*
X129754488Y-87064227D01*
X129477063Y-86649032D01*
X129123968Y-86295937D01*
X128708773Y-86018512D01*
X128247432Y-85827418D01*
X127757676Y-85730000D01*
X127258324Y-85730000D01*
X126768568Y-85827418D01*
X126307227Y-86018512D01*
X125892032Y-86295937D01*
X125538937Y-86649032D01*
X125261512Y-87064227D01*
X125070418Y-87525568D01*
X124973000Y-88015324D01*
X112395000Y-88015324D01*
X112395000Y-74422000D01*
X123824707Y-74422000D01*
X123673492Y-74787065D01*
G36*
X173245931Y-76554006D02*
G01*
X173433203Y-76782197D01*
X173661395Y-76969469D01*
X173921737Y-77108625D01*
X174204224Y-77194316D01*
X174498000Y-77223251D01*
X174791777Y-77194316D01*
X175074264Y-77108625D01*
X175334606Y-76969469D01*
X175562797Y-76782197D01*
X175641000Y-76686907D01*
X175641000Y-88530873D01*
X175337887Y-88733406D01*
X174966406Y-89104887D01*
X174674536Y-89541702D01*
X174473492Y-90027065D01*
X174371000Y-90542323D01*
X174371000Y-91067677D01*
X174473492Y-91582935D01*
X174674536Y-92068298D01*
X174966406Y-92505113D01*
X175337887Y-92876594D01*
X175641000Y-93079127D01*
X175641000Y-116470873D01*
X175337887Y-116673406D01*
X174966406Y-117044887D01*
X174674536Y-117481702D01*
X174473492Y-117967065D01*
X174371000Y-118482323D01*
X174371000Y-119007677D01*
X174473492Y-119522935D01*
X174674536Y-120008298D01*
X174966406Y-120445113D01*
X175337887Y-120816594D01*
X175641000Y-121019127D01*
X175641000Y-122703093D01*
X175562797Y-122607803D01*
X175334605Y-122420531D01*
X175074263Y-122281375D01*
X174791776Y-122195684D01*
X174498000Y-122166749D01*
X174204223Y-122195684D01*
X174121101Y-122220899D01*
X171096846Y-119196645D01*
X171079068Y-119107271D01*
X171008586Y-118937111D01*
X170906262Y-118783972D01*
X170776028Y-118653738D01*
X170622889Y-118551414D01*
X170452729Y-118480932D01*
X170272089Y-118445000D01*
X170087911Y-118445000D01*
X169907271Y-118480932D01*
X169737111Y-118551414D01*
X169583972Y-118653738D01*
X169453738Y-118783972D01*
X169351414Y-118937111D01*
X169280932Y-119107271D01*
X169245000Y-119287911D01*
X169245000Y-119472089D01*
X169280932Y-119652729D01*
X169351414Y-119822889D01*
X169453738Y-119976028D01*
X169583972Y-120106262D01*
X169737111Y-120208586D01*
X169907271Y-120279068D01*
X170060059Y-120309460D01*
X171920992Y-122170394D01*
X171664223Y-122195684D01*
X171581101Y-122220899D01*
X168556846Y-119196645D01*
X168539068Y-119107271D01*
X168468586Y-118937111D01*
X168366262Y-118783972D01*
X168236028Y-118653738D01*
X168082889Y-118551414D01*
X167912729Y-118480932D01*
X167732089Y-118445000D01*
X167547911Y-118445000D01*
X167367271Y-118480932D01*
X167197111Y-118551414D01*
X167043972Y-118653738D01*
X166913738Y-118783972D01*
X166811414Y-118937111D01*
X166740932Y-119107271D01*
X166705000Y-119287911D01*
X166705000Y-119472089D01*
X166740932Y-119652729D01*
X166811414Y-119822889D01*
X166913738Y-119976028D01*
X167043972Y-120106262D01*
X167197111Y-120208586D01*
X167367271Y-120279068D01*
X167520059Y-120309460D01*
X169380992Y-122170394D01*
X169124223Y-122195684D01*
X168841736Y-122281375D01*
X168581394Y-122420531D01*
X168353203Y-122607803D01*
X168165931Y-122835995D01*
X168148000Y-122869541D01*
X168130069Y-122835994D01*
X167942797Y-122607803D01*
X167714605Y-122420531D01*
X167454263Y-122281375D01*
X167171776Y-122195684D01*
X166878000Y-122166749D01*
X166584223Y-122195684D01*
X166301736Y-122281375D01*
X166041394Y-122420531D01*
X165813203Y-122607803D01*
X165625931Y-122835995D01*
X165608000Y-122869541D01*
X165590069Y-122835994D01*
X165402797Y-122607803D01*
X165174605Y-122420531D01*
X164914263Y-122281375D01*
X164631776Y-122195684D01*
X164338000Y-122166749D01*
X164044223Y-122195684D01*
X163761736Y-122281375D01*
X163501394Y-122420531D01*
X163273203Y-122607803D01*
X163085931Y-122835995D01*
X163068000Y-122869541D01*
X163050069Y-122835994D01*
X162862797Y-122607803D01*
X162634605Y-122420531D01*
X162374263Y-122281375D01*
X162091776Y-122195684D01*
X161798000Y-122166749D01*
X161504223Y-122195684D01*
X161221736Y-122281375D01*
X160961394Y-122420531D01*
X160733203Y-122607803D01*
X160647020Y-122712818D01*
X159510000Y-121575799D01*
X159510000Y-119328043D01*
X159624781Y-119251349D01*
X161471256Y-119251349D01*
X161675362Y-119607867D01*
X162118223Y-119838575D01*
X162597583Y-119978452D01*
X163095021Y-120022123D01*
X163591422Y-119967909D01*
X164067707Y-119817894D01*
X164460638Y-119607867D01*
X164664744Y-119251349D01*
X163068000Y-117654605D01*
X161471256Y-119251349D01*
X159624781Y-119251349D01*
X159664759Y-119224637D01*
X159864637Y-119024759D01*
X160021680Y-118789727D01*
X160129853Y-118528574D01*
X160185000Y-118251335D01*
X160185000Y-117968665D01*
X160129853Y-117691426D01*
X160051399Y-117502021D01*
X160520877Y-117502021D01*
X160575091Y-117998422D01*
X160725106Y-118474707D01*
X160935133Y-118867638D01*
X161291651Y-119071744D01*
X162888395Y-117475000D01*
X163247605Y-117475000D01*
X164844349Y-119071744D01*
X165200867Y-118867638D01*
X165431575Y-118424777D01*
X165571452Y-117945417D01*
X165615123Y-117447979D01*
X165560909Y-116951578D01*
X165410894Y-116475293D01*
X165200867Y-116082362D01*
X164844349Y-115878256D01*
X163247605Y-117475000D01*
X162888395Y-117475000D01*
X161291651Y-115878256D01*
X160935133Y-116082362D01*
X160704425Y-116525223D01*
X160564548Y-117004583D01*
X160520877Y-117502021D01*
X160051399Y-117502021D01*
X160021680Y-117430273D01*
X159864637Y-117195241D01*
X159664759Y-116995363D01*
X159429727Y-116838320D01*
X159168574Y-116730147D01*
X158891335Y-116675000D01*
X158608665Y-116675000D01*
X158426113Y-116711312D01*
X158188803Y-116474001D01*
X158165000Y-116444998D01*
X158049275Y-116350025D01*
X157917246Y-116279453D01*
X157773985Y-116235996D01*
X157662332Y-116224999D01*
X157662321Y-116224999D01*
X157624999Y-116221323D01*
X157587677Y-116224999D01*
X150627321Y-116224999D01*
X150589998Y-116221323D01*
X150552675Y-116224999D01*
X150552666Y-116224999D01*
X150441013Y-116235996D01*
X150297752Y-116279453D01*
X150165722Y-116350025D01*
X150082082Y-116418667D01*
X150049998Y-116444998D01*
X150026200Y-116473996D01*
X149079340Y-117420856D01*
X149050337Y-117444659D01*
X149003262Y-117502021D01*
X148955364Y-117560384D01*
X148888368Y-117685724D01*
X148884792Y-117692414D01*
X148841335Y-117835675D01*
X148830338Y-117947328D01*
X148830338Y-117947338D01*
X148826662Y-117984660D01*
X148830338Y-118021983D01*
X148830339Y-122193112D01*
X148804223Y-122195684D01*
X148721100Y-122220899D01*
X148548204Y-122048002D01*
X148524401Y-122018999D01*
X148408676Y-121924026D01*
X148276647Y-121853454D01*
X148168429Y-121820627D01*
X144859343Y-118511542D01*
X144966555Y-118423555D01*
X145133382Y-118220275D01*
X145257347Y-117988354D01*
X145333683Y-117736706D01*
X145359459Y-117475000D01*
X145333683Y-117213294D01*
X145257347Y-116961646D01*
X145133382Y-116729725D01*
X144966555Y-116526445D01*
X144763275Y-116359618D01*
X144531354Y-116235653D01*
X144279706Y-116159317D01*
X144083579Y-116140000D01*
X143952421Y-116140000D01*
X143775251Y-116157450D01*
X143556803Y-115939002D01*
X143533000Y-115909998D01*
X143417275Y-115815025D01*
X143285246Y-115744453D01*
X143141985Y-115700996D01*
X143030332Y-115689999D01*
X143030321Y-115689999D01*
X142992999Y-115686323D01*
X142955677Y-115689999D01*
X138672999Y-115689999D01*
X138672999Y-115648800D01*
X142256136Y-112065663D01*
X142342418Y-112499432D01*
X142533512Y-112960773D01*
X142810937Y-113375968D01*
X143164032Y-113729063D01*
X143579227Y-114006488D01*
X144040568Y-114197582D01*
X144530324Y-114295000D01*
X145029676Y-114295000D01*
X145519432Y-114197582D01*
X145960206Y-114015007D01*
X147406202Y-115461004D01*
X147430000Y-115490002D01*
X147545725Y-115584975D01*
X147677754Y-115655547D01*
X147821015Y-115699004D01*
X147932668Y-115710001D01*
X147932676Y-115710001D01*
X147970001Y-115713677D01*
X148007326Y-115710001D01*
X152855677Y-115710001D01*
X152892999Y-115713677D01*
X152930321Y-115710001D01*
X152930332Y-115710001D01*
X153041985Y-115699004D01*
X153043148Y-115698651D01*
X161471256Y-115698651D01*
X163068000Y-117295395D01*
X164664744Y-115698651D01*
X164460638Y-115342133D01*
X164017777Y-115111425D01*
X163538417Y-114971548D01*
X163040979Y-114927877D01*
X162544578Y-114982091D01*
X162068293Y-115132106D01*
X161675362Y-115342133D01*
X161471256Y-115698651D01*
X153043148Y-115698651D01*
X153185246Y-115655547D01*
X153317275Y-115584975D01*
X153433000Y-115490002D01*
X153456803Y-115460998D01*
X153718043Y-115199758D01*
X154020906Y-115260000D01*
X154335094Y-115260000D01*
X154643244Y-115198706D01*
X154933516Y-115078471D01*
X155194754Y-114903918D01*
X155326787Y-114771885D01*
X155790720Y-114771885D01*
X155881653Y-115032197D01*
X156164451Y-115169090D01*
X156468521Y-115248182D01*
X156782178Y-115266432D01*
X157093368Y-115223140D01*
X157390134Y-115119970D01*
X157554347Y-115032197D01*
X157645280Y-114771885D01*
X156718000Y-113844605D01*
X155790720Y-114771885D01*
X155326787Y-114771885D01*
X155416918Y-114681754D01*
X155502139Y-114554212D01*
X155611115Y-114592280D01*
X156538395Y-113665000D01*
X156897605Y-113665000D01*
X157824885Y-114592280D01*
X158085197Y-114501347D01*
X158222090Y-114218549D01*
X158301182Y-113914479D01*
X158319432Y-113600822D01*
X158298508Y-113450413D01*
X167192192Y-113450413D01*
X167287956Y-113714814D01*
X167577571Y-113855704D01*
X167889108Y-113937384D01*
X168210595Y-113956718D01*
X168529675Y-113912961D01*
X168834088Y-113807795D01*
X169008044Y-113714814D01*
X169103808Y-113450413D01*
X168148000Y-112494605D01*
X167192192Y-113450413D01*
X158298508Y-113450413D01*
X158276140Y-113289632D01*
X158172970Y-112992866D01*
X158085197Y-112828653D01*
X157824885Y-112737720D01*
X156897605Y-113665000D01*
X156538395Y-113665000D01*
X155611115Y-112737720D01*
X155502139Y-112775788D01*
X155416918Y-112648246D01*
X155326787Y-112558115D01*
X155790720Y-112558115D01*
X156718000Y-113485395D01*
X157645280Y-112558115D01*
X157582221Y-112377595D01*
X166506282Y-112377595D01*
X166550039Y-112696675D01*
X166655205Y-113001088D01*
X166748186Y-113175044D01*
X167012587Y-113270808D01*
X167968395Y-112315000D01*
X168327605Y-112315000D01*
X169283413Y-113270808D01*
X169547814Y-113175044D01*
X169688704Y-112885429D01*
X169770384Y-112573892D01*
X169789718Y-112252405D01*
X169745961Y-111933325D01*
X169640795Y-111628912D01*
X169547814Y-111454956D01*
X169283413Y-111359192D01*
X168327605Y-112315000D01*
X167968395Y-112315000D01*
X167012587Y-111359192D01*
X166748186Y-111454956D01*
X166607296Y-111744571D01*
X166525616Y-112056108D01*
X166506282Y-112377595D01*
X157582221Y-112377595D01*
X157554347Y-112297803D01*
X157271549Y-112160910D01*
X156967479Y-112081818D01*
X156653822Y-112063568D01*
X156342632Y-112106860D01*
X156045866Y-112210030D01*
X155881653Y-112297803D01*
X155790720Y-112558115D01*
X155326787Y-112558115D01*
X155194754Y-112426082D01*
X154933516Y-112251529D01*
X154643244Y-112131294D01*
X154335094Y-112070000D01*
X154020906Y-112070000D01*
X153712756Y-112131294D01*
X153422484Y-112251529D01*
X153166911Y-112422297D01*
X153128537Y-112350506D01*
X153049185Y-112253815D01*
X152974928Y-112192874D01*
X153988215Y-111179587D01*
X167192192Y-111179587D01*
X168148000Y-112135395D01*
X169103808Y-111179587D01*
X169008044Y-110915186D01*
X168718429Y-110774296D01*
X168406892Y-110692616D01*
X168085405Y-110673282D01*
X167766325Y-110717039D01*
X167461912Y-110822205D01*
X167287956Y-110915186D01*
X167192192Y-111179587D01*
X153988215Y-111179587D01*
X155237781Y-109930021D01*
X169477069Y-109930021D01*
X169514391Y-109933697D01*
X169551713Y-109930021D01*
X169551724Y-109930021D01*
X169663377Y-109919024D01*
X169806638Y-109875567D01*
X169938667Y-109804995D01*
X170054392Y-109710022D01*
X170078195Y-109681018D01*
X171334013Y-108425201D01*
X171363011Y-108401403D01*
X171457984Y-108285678D01*
X171528556Y-108153649D01*
X171572013Y-108010388D01*
X171583010Y-107898735D01*
X171583010Y-107898727D01*
X171586686Y-107861402D01*
X171583010Y-107824077D01*
X171583010Y-79003460D01*
X171586686Y-78966137D01*
X171583010Y-78928814D01*
X171583010Y-78928805D01*
X171572013Y-78817152D01*
X171528556Y-78673891D01*
X171457984Y-78541862D01*
X171363011Y-78426137D01*
X171334014Y-78402340D01*
X170024263Y-77092590D01*
X170254606Y-76969469D01*
X170482797Y-76782197D01*
X170670069Y-76554006D01*
X170688000Y-76520459D01*
X170705931Y-76554006D01*
X170893203Y-76782197D01*
X171121395Y-76969469D01*
X171381737Y-77108625D01*
X171664224Y-77194316D01*
X171958000Y-77223251D01*
X172251777Y-77194316D01*
X172534264Y-77108625D01*
X172794606Y-76969469D01*
X173022797Y-76782197D01*
X173210069Y-76554006D01*
X173228000Y-76520459D01*
X173245931Y-76554006D01*
X173245931Y-76554006D01*
G37*
X173245931Y-76554006D02*
X173433203Y-76782197D01*
X173661395Y-76969469D01*
X173921737Y-77108625D01*
X174204224Y-77194316D01*
X174498000Y-77223251D01*
X174791777Y-77194316D01*
X175074264Y-77108625D01*
X175334606Y-76969469D01*
X175562797Y-76782197D01*
X175641000Y-76686907D01*
X175641000Y-88530873D01*
X175337887Y-88733406D01*
X174966406Y-89104887D01*
X174674536Y-89541702D01*
X174473492Y-90027065D01*
X174371000Y-90542323D01*
X174371000Y-91067677D01*
X174473492Y-91582935D01*
X174674536Y-92068298D01*
X174966406Y-92505113D01*
X175337887Y-92876594D01*
X175641000Y-93079127D01*
X175641000Y-116470873D01*
X175337887Y-116673406D01*
X174966406Y-117044887D01*
X174674536Y-117481702D01*
X174473492Y-117967065D01*
X174371000Y-118482323D01*
X174371000Y-119007677D01*
X174473492Y-119522935D01*
X174674536Y-120008298D01*
X174966406Y-120445113D01*
X175337887Y-120816594D01*
X175641000Y-121019127D01*
X175641000Y-122703093D01*
X175562797Y-122607803D01*
X175334605Y-122420531D01*
X175074263Y-122281375D01*
X174791776Y-122195684D01*
X174498000Y-122166749D01*
X174204223Y-122195684D01*
X174121101Y-122220899D01*
X171096846Y-119196645D01*
X171079068Y-119107271D01*
X171008586Y-118937111D01*
X170906262Y-118783972D01*
X170776028Y-118653738D01*
X170622889Y-118551414D01*
X170452729Y-118480932D01*
X170272089Y-118445000D01*
X170087911Y-118445000D01*
X169907271Y-118480932D01*
X169737111Y-118551414D01*
X169583972Y-118653738D01*
X169453738Y-118783972D01*
X169351414Y-118937111D01*
X169280932Y-119107271D01*
X169245000Y-119287911D01*
X169245000Y-119472089D01*
X169280932Y-119652729D01*
X169351414Y-119822889D01*
X169453738Y-119976028D01*
X169583972Y-120106262D01*
X169737111Y-120208586D01*
X169907271Y-120279068D01*
X170060059Y-120309460D01*
X171920992Y-122170394D01*
X171664223Y-122195684D01*
X171581101Y-122220899D01*
X168556846Y-119196645D01*
X168539068Y-119107271D01*
X168468586Y-118937111D01*
X168366262Y-118783972D01*
X168236028Y-118653738D01*
X168082889Y-118551414D01*
X167912729Y-118480932D01*
X167732089Y-118445000D01*
X167547911Y-118445000D01*
X167367271Y-118480932D01*
X167197111Y-118551414D01*
X167043972Y-118653738D01*
X166913738Y-118783972D01*
X166811414Y-118937111D01*
X166740932Y-119107271D01*
X166705000Y-119287911D01*
X166705000Y-119472089D01*
X166740932Y-119652729D01*
X166811414Y-119822889D01*
X166913738Y-119976028D01*
X167043972Y-120106262D01*
X167197111Y-120208586D01*
X167367271Y-120279068D01*
X167520059Y-120309460D01*
X169380992Y-122170394D01*
X169124223Y-122195684D01*
X168841736Y-122281375D01*
X168581394Y-122420531D01*
X168353203Y-122607803D01*
X168165931Y-122835995D01*
X168148000Y-122869541D01*
X168130069Y-122835994D01*
X167942797Y-122607803D01*
X167714605Y-122420531D01*
X167454263Y-122281375D01*
X167171776Y-122195684D01*
X166878000Y-122166749D01*
X166584223Y-122195684D01*
X166301736Y-122281375D01*
X166041394Y-122420531D01*
X165813203Y-122607803D01*
X165625931Y-122835995D01*
X165608000Y-122869541D01*
X165590069Y-122835994D01*
X165402797Y-122607803D01*
X165174605Y-122420531D01*
X164914263Y-122281375D01*
X164631776Y-122195684D01*
X164338000Y-122166749D01*
X164044223Y-122195684D01*
X163761736Y-122281375D01*
X163501394Y-122420531D01*
X163273203Y-122607803D01*
X163085931Y-122835995D01*
X163068000Y-122869541D01*
X163050069Y-122835994D01*
X162862797Y-122607803D01*
X162634605Y-122420531D01*
X162374263Y-122281375D01*
X162091776Y-122195684D01*
X161798000Y-122166749D01*
X161504223Y-122195684D01*
X161221736Y-122281375D01*
X160961394Y-122420531D01*
X160733203Y-122607803D01*
X160647020Y-122712818D01*
X159510000Y-121575799D01*
X159510000Y-119328043D01*
X159624781Y-119251349D01*
X161471256Y-119251349D01*
X161675362Y-119607867D01*
X162118223Y-119838575D01*
X162597583Y-119978452D01*
X163095021Y-120022123D01*
X163591422Y-119967909D01*
X164067707Y-119817894D01*
X164460638Y-119607867D01*
X164664744Y-119251349D01*
X163068000Y-117654605D01*
X161471256Y-119251349D01*
X159624781Y-119251349D01*
X159664759Y-119224637D01*
X159864637Y-119024759D01*
X160021680Y-118789727D01*
X160129853Y-118528574D01*
X160185000Y-118251335D01*
X160185000Y-117968665D01*
X160129853Y-117691426D01*
X160051399Y-117502021D01*
X160520877Y-117502021D01*
X160575091Y-117998422D01*
X160725106Y-118474707D01*
X160935133Y-118867638D01*
X161291651Y-119071744D01*
X162888395Y-117475000D01*
X163247605Y-117475000D01*
X164844349Y-119071744D01*
X165200867Y-118867638D01*
X165431575Y-118424777D01*
X165571452Y-117945417D01*
X165615123Y-117447979D01*
X165560909Y-116951578D01*
X165410894Y-116475293D01*
X165200867Y-116082362D01*
X164844349Y-115878256D01*
X163247605Y-117475000D01*
X162888395Y-117475000D01*
X161291651Y-115878256D01*
X160935133Y-116082362D01*
X160704425Y-116525223D01*
X160564548Y-117004583D01*
X160520877Y-117502021D01*
X160051399Y-117502021D01*
X160021680Y-117430273D01*
X159864637Y-117195241D01*
X159664759Y-116995363D01*
X159429727Y-116838320D01*
X159168574Y-116730147D01*
X158891335Y-116675000D01*
X158608665Y-116675000D01*
X158426113Y-116711312D01*
X158188803Y-116474001D01*
X158165000Y-116444998D01*
X158049275Y-116350025D01*
X157917246Y-116279453D01*
X157773985Y-116235996D01*
X157662332Y-116224999D01*
X157662321Y-116224999D01*
X157624999Y-116221323D01*
X157587677Y-116224999D01*
X150627321Y-116224999D01*
X150589998Y-116221323D01*
X150552675Y-116224999D01*
X150552666Y-116224999D01*
X150441013Y-116235996D01*
X150297752Y-116279453D01*
X150165722Y-116350025D01*
X150082082Y-116418667D01*
X150049998Y-116444998D01*
X150026200Y-116473996D01*
X149079340Y-117420856D01*
X149050337Y-117444659D01*
X149003262Y-117502021D01*
X148955364Y-117560384D01*
X148888368Y-117685724D01*
X148884792Y-117692414D01*
X148841335Y-117835675D01*
X148830338Y-117947328D01*
X148830338Y-117947338D01*
X148826662Y-117984660D01*
X148830338Y-118021983D01*
X148830339Y-122193112D01*
X148804223Y-122195684D01*
X148721100Y-122220899D01*
X148548204Y-122048002D01*
X148524401Y-122018999D01*
X148408676Y-121924026D01*
X148276647Y-121853454D01*
X148168429Y-121820627D01*
X144859343Y-118511542D01*
X144966555Y-118423555D01*
X145133382Y-118220275D01*
X145257347Y-117988354D01*
X145333683Y-117736706D01*
X145359459Y-117475000D01*
X145333683Y-117213294D01*
X145257347Y-116961646D01*
X145133382Y-116729725D01*
X144966555Y-116526445D01*
X144763275Y-116359618D01*
X144531354Y-116235653D01*
X144279706Y-116159317D01*
X144083579Y-116140000D01*
X143952421Y-116140000D01*
X143775251Y-116157450D01*
X143556803Y-115939002D01*
X143533000Y-115909998D01*
X143417275Y-115815025D01*
X143285246Y-115744453D01*
X143141985Y-115700996D01*
X143030332Y-115689999D01*
X143030321Y-115689999D01*
X142992999Y-115686323D01*
X142955677Y-115689999D01*
X138672999Y-115689999D01*
X138672999Y-115648800D01*
X142256136Y-112065663D01*
X142342418Y-112499432D01*
X142533512Y-112960773D01*
X142810937Y-113375968D01*
X143164032Y-113729063D01*
X143579227Y-114006488D01*
X144040568Y-114197582D01*
X144530324Y-114295000D01*
X145029676Y-114295000D01*
X145519432Y-114197582D01*
X145960206Y-114015007D01*
X147406202Y-115461004D01*
X147430000Y-115490002D01*
X147545725Y-115584975D01*
X147677754Y-115655547D01*
X147821015Y-115699004D01*
X147932668Y-115710001D01*
X147932676Y-115710001D01*
X147970001Y-115713677D01*
X148007326Y-115710001D01*
X152855677Y-115710001D01*
X152892999Y-115713677D01*
X152930321Y-115710001D01*
X152930332Y-115710001D01*
X153041985Y-115699004D01*
X153043148Y-115698651D01*
X161471256Y-115698651D01*
X163068000Y-117295395D01*
X164664744Y-115698651D01*
X164460638Y-115342133D01*
X164017777Y-115111425D01*
X163538417Y-114971548D01*
X163040979Y-114927877D01*
X162544578Y-114982091D01*
X162068293Y-115132106D01*
X161675362Y-115342133D01*
X161471256Y-115698651D01*
X153043148Y-115698651D01*
X153185246Y-115655547D01*
X153317275Y-115584975D01*
X153433000Y-115490002D01*
X153456803Y-115460998D01*
X153718043Y-115199758D01*
X154020906Y-115260000D01*
X154335094Y-115260000D01*
X154643244Y-115198706D01*
X154933516Y-115078471D01*
X155194754Y-114903918D01*
X155326787Y-114771885D01*
X155790720Y-114771885D01*
X155881653Y-115032197D01*
X156164451Y-115169090D01*
X156468521Y-115248182D01*
X156782178Y-115266432D01*
X157093368Y-115223140D01*
X157390134Y-115119970D01*
X157554347Y-115032197D01*
X157645280Y-114771885D01*
X156718000Y-113844605D01*
X155790720Y-114771885D01*
X155326787Y-114771885D01*
X155416918Y-114681754D01*
X155502139Y-114554212D01*
X155611115Y-114592280D01*
X156538395Y-113665000D01*
X156897605Y-113665000D01*
X157824885Y-114592280D01*
X158085197Y-114501347D01*
X158222090Y-114218549D01*
X158301182Y-113914479D01*
X158319432Y-113600822D01*
X158298508Y-113450413D01*
X167192192Y-113450413D01*
X167287956Y-113714814D01*
X167577571Y-113855704D01*
X167889108Y-113937384D01*
X168210595Y-113956718D01*
X168529675Y-113912961D01*
X168834088Y-113807795D01*
X169008044Y-113714814D01*
X169103808Y-113450413D01*
X168148000Y-112494605D01*
X167192192Y-113450413D01*
X158298508Y-113450413D01*
X158276140Y-113289632D01*
X158172970Y-112992866D01*
X158085197Y-112828653D01*
X157824885Y-112737720D01*
X156897605Y-113665000D01*
X156538395Y-113665000D01*
X155611115Y-112737720D01*
X155502139Y-112775788D01*
X155416918Y-112648246D01*
X155326787Y-112558115D01*
X155790720Y-112558115D01*
X156718000Y-113485395D01*
X157645280Y-112558115D01*
X157582221Y-112377595D01*
X166506282Y-112377595D01*
X166550039Y-112696675D01*
X166655205Y-113001088D01*
X166748186Y-113175044D01*
X167012587Y-113270808D01*
X167968395Y-112315000D01*
X168327605Y-112315000D01*
X169283413Y-113270808D01*
X169547814Y-113175044D01*
X169688704Y-112885429D01*
X169770384Y-112573892D01*
X169789718Y-112252405D01*
X169745961Y-111933325D01*
X169640795Y-111628912D01*
X169547814Y-111454956D01*
X169283413Y-111359192D01*
X168327605Y-112315000D01*
X167968395Y-112315000D01*
X167012587Y-111359192D01*
X166748186Y-111454956D01*
X166607296Y-111744571D01*
X166525616Y-112056108D01*
X166506282Y-112377595D01*
X157582221Y-112377595D01*
X157554347Y-112297803D01*
X157271549Y-112160910D01*
X156967479Y-112081818D01*
X156653822Y-112063568D01*
X156342632Y-112106860D01*
X156045866Y-112210030D01*
X155881653Y-112297803D01*
X155790720Y-112558115D01*
X155326787Y-112558115D01*
X155194754Y-112426082D01*
X154933516Y-112251529D01*
X154643244Y-112131294D01*
X154335094Y-112070000D01*
X154020906Y-112070000D01*
X153712756Y-112131294D01*
X153422484Y-112251529D01*
X153166911Y-112422297D01*
X153128537Y-112350506D01*
X153049185Y-112253815D01*
X152974928Y-112192874D01*
X153988215Y-111179587D01*
X167192192Y-111179587D01*
X168148000Y-112135395D01*
X169103808Y-111179587D01*
X169008044Y-110915186D01*
X168718429Y-110774296D01*
X168406892Y-110692616D01*
X168085405Y-110673282D01*
X167766325Y-110717039D01*
X167461912Y-110822205D01*
X167287956Y-110915186D01*
X167192192Y-111179587D01*
X153988215Y-111179587D01*
X155237781Y-109930021D01*
X169477069Y-109930021D01*
X169514391Y-109933697D01*
X169551713Y-109930021D01*
X169551724Y-109930021D01*
X169663377Y-109919024D01*
X169806638Y-109875567D01*
X169938667Y-109804995D01*
X170054392Y-109710022D01*
X170078195Y-109681018D01*
X171334013Y-108425201D01*
X171363011Y-108401403D01*
X171457984Y-108285678D01*
X171528556Y-108153649D01*
X171572013Y-108010388D01*
X171583010Y-107898735D01*
X171583010Y-107898727D01*
X171586686Y-107861402D01*
X171583010Y-107824077D01*
X171583010Y-79003460D01*
X171586686Y-78966137D01*
X171583010Y-78928814D01*
X171583010Y-78928805D01*
X171572013Y-78817152D01*
X171528556Y-78673891D01*
X171457984Y-78541862D01*
X171363011Y-78426137D01*
X171334014Y-78402340D01*
X170024263Y-77092590D01*
X170254606Y-76969469D01*
X170482797Y-76782197D01*
X170670069Y-76554006D01*
X170688000Y-76520459D01*
X170705931Y-76554006D01*
X170893203Y-76782197D01*
X171121395Y-76969469D01*
X171381737Y-77108625D01*
X171664224Y-77194316D01*
X171958000Y-77223251D01*
X172251777Y-77194316D01*
X172534264Y-77108625D01*
X172794606Y-76969469D01*
X173022797Y-76782197D01*
X173210069Y-76554006D01*
X173228000Y-76520459D01*
X173245931Y-76554006D01*
G36*
X128657001Y-74435781D02*
G01*
X128651293Y-74422000D01*
X128668311Y-74422000D01*
X128657001Y-74435781D01*
X128657001Y-74435781D01*
G37*
X128657001Y-74435781D02*
X128651293Y-74422000D01*
X128668311Y-74422000D01*
X128657001Y-74435781D01*
M02*
