M48
; DRILL file {KiCad (5.1.4)-1} date 11/15/2019 3:25:10 PM
; FORMAT={-:-/ absolute / metric / decimal}
; #@! TF.CreationDate,2019-11-15T15:25:10-06:00
; #@! TF.GenerationSoftware,Kicad,Pcbnew,(5.1.4)-1
FMAT,2
METRIC
T1C0.400
T2C0.500
T3C0.700
T4C0.800
T5C1.000
T6C1.016
T7C1.280
T8C2.200
T9C3.048
%
G90
G05
T1
X127.0Y-81.28
X134.62Y-78.74
X167.64Y-119.38
X170.18Y-119.38
T2
X163.91Y-83.185
X164.91Y-83.185
X165.91Y-83.185
X166.91Y-83.185
X167.91Y-83.185
X168.91Y-83.185
T3
X138.938Y-117.475
X144.018Y-117.475
T4
X156.718Y-97.155
X164.338Y-97.155
X136.398Y-83.185
X136.398Y-85.725
X136.398Y-88.265
X136.398Y-90.805
X136.398Y-93.345
X136.398Y-95.885
X136.398Y-98.425
X136.398Y-100.965
X149.098Y-83.185
X149.098Y-85.725
X149.098Y-88.265
X149.098Y-90.805
X149.098Y-93.345
X149.098Y-95.885
X149.098Y-98.425
X149.098Y-100.965
X155.448Y-89.535
X163.068Y-89.535
X151.13Y-118.11
X158.75Y-118.11
T5
X168.148Y-107.315
X168.148Y-112.315
T6
X129.794Y-75.565
X132.334Y-75.565
X134.874Y-75.565
X137.414Y-75.565
X139.954Y-75.565
X142.494Y-75.565
X145.034Y-75.565
X147.574Y-75.565
X150.114Y-75.565
X152.654Y-75.565
X138.938Y-123.825
X141.478Y-123.825
X144.018Y-123.825
X146.558Y-123.825
X149.098Y-123.825
X151.638Y-123.825
X154.178Y-123.825
X156.718Y-123.825
X156.718Y-75.565
X159.258Y-75.565
X161.798Y-75.565
X164.338Y-75.565
X166.878Y-75.565
X169.418Y-75.565
X171.958Y-75.565
X174.498Y-75.565
X161.798Y-123.825
X164.338Y-123.825
X166.878Y-123.825
X169.418Y-123.825
X171.958Y-123.825
X174.498Y-123.825
T7
X151.638Y-113.665
X154.178Y-113.665
X156.718Y-113.665
T8
X127.508Y-88.265
X127.508Y-99.695
X144.78Y-111.76
X168.148Y-99.695
X168.148Y-90.805
X163.068Y-117.475
X131.318Y-93.345
X131.318Y-81.915
T9
X126.238Y-75.565
X124.968Y-123.825
X177.038Y-118.745
X177.038Y-90.805
T0
M30
